<?xml version="1.0" encoding="utf-8"?><!--Generator: Adobe Illustrator 25.0.0, SVG Export Plug-In . SVG Version: 6.00 Build 0)--><svg version="1.1" id="Layer_1" xmlns="http://www.w3.org/2000/svg" xmlns:xlink="http://www.w3.org/1999/xlink" x="0px" y="0px" viewBox="0 0 800 800" style="enable-background:new 0 0 800 800" xml:space="preserve"><style type="text/css">.st0{fill:#FFFFFF;}
	.st1{fill:none;}</style><path class="st0" d="M633.3,166.7v466.7H166.7V166.7H633.3 M633.3,100H166.7c-36.8,0-66.7,29.8-66.7,66.7v466.7
	c0,36.8,29.8,66.7,66.7,66.7h466.7c36.8,0,66.7-29.8,66.7-66.7V166.7C700,129.8,670.2,100,633.3,100z"/><rect class="st1" width="800" height="800"/><g><path class="st0" d="M403.7,349c1.5,24.5-8.4,48.3-26.7,64.7c-21.5,16.2-48.1,24.1-75,22.3h-23.7v93h-55.7V266.7h83.7
		c25.8-1.8,51.4,5.5,72.3,20.7C396.3,302.8,405.6,325.6,403.7,349z M278.3,390.7h18c13.1,0.7,26.1-3,37-10.3
		c8.9-7,13.7-18,12.7-29.3c1-10.8-2.9-21.4-10.7-29c-9.7-7-21.5-10.3-33.3-9.3h-23.7V390.7z"/><path class="st0" d="M577.3,469.7c1,18.2-7,35.7-21.3,47c-19.1,12-41.5,17.6-64,16c-12.5,0.2-25-0.8-37.3-3
		c-10-1.8-19.7-4.7-29-8.7v-45c10.8,4.9,21.9,8.9,33.3,12c10.9,2.8,22.1,4.3,33.3,4.7c19.7,0,29.7-5.7,29.7-17
		c0.2-3.9-1.3-7.8-4-10.7c-3.9-3.7-8.4-6.7-13.3-9l-26-12c-11.8-4.6-23-10.6-33.3-18c-6.6-4.9-12-11.3-15.7-18.7
		c-3.5-8.3-5.2-17.3-5-26.3c-0.6-16.4,7.2-32,20.7-41.3c17.6-10.7,38.1-15.8,58.7-14.7c24.3,0,48.4,5.5,70.3,16L558,380.3
		c-9.1-4.1-18.5-7.6-28-10.7c-8.6-2.7-17.6-4-26.7-4c-16.3,0-24.3,4.3-24.3,13c0.3,5.3,3.3,10.1,8,12.7c10.5,6.4,21.7,11.8,33.3,16
		c11.7,4.6,22.9,10.5,33.3,17.7c6.8,5,12.2,11.5,16,19C574.3,451.8,576.9,460.6,577.3,469.7z"/></g></svg>