<?xml version="1.0" encoding="UTF-8"?><svg id="_レイヤー_2" xmlns="http://www.w3.org/2000/svg" viewBox="0 0 215 27.93"><defs><style>.cls-1,.cls-2,.cls-3,.cls-4,.cls-5{stroke-width:0px;}.cls-2{fill:#c30a00;}.cls-3{fill:#fff;}.cls-4{fill:#ffcf00;}.cls-5{fill:#023c6e;}</style></defs><g id="_レイヤー_3"><path class="cls-3" d="M76.22,28.08c-2.32,0-4.21-1.89-4.21-4.21V3.27c-.01-.8.3-1.56.86-2.12s1.33-.88,2.12-.88h19.87c2.32,0,4.21,1.86,4.21,4.13s-1.89,4.14-4.21,4.14h-14.15s0,11.28,0,11.28h14.66c2.32,0,4.21,1.86,4.21,4.14s-1.89,4.13-4.21,4.13c0,0-19.15-.02-19.15-.02Z"/><path class="cls-3" d="M38.55,28.26c-1.42,0-2.68-.71-3.44-1.79-1.08.71-2.4,1.27-3.89,1.44-.25.03-.78.07-1.25.09-.19.03-.38.04-.58.04,0,0-.24,0-.3,0s-.34,0-.34,0c-1.66,0-3-1.34-3-3v-2.46c0-1.44,1.01-2.64,2.37-2.93-1.24-.73-2.08-2.09-2.08-3.63v-6.48c0-.1,0-.2.01-.3-.92-.76-1.51-1.9-1.51-3.17,0-2.28,1.89-4.14,4.21-4.14h5.99c.67-1.43,2.13-2.42,3.81-2.42h.28c1.69,0,3.14.99,3.82,2.43h5.81c2.32,0,4.21,1.86,4.21,4.14,0,1.21-.53,2.29-1.37,3.05.01.14.02.28.02.42v6.48c0,1.54-.83,2.89-2.07,3.62,1.38.27,2.41,1.49,2.41,2.94v2.46c0,1.66-1.34,3-3,3,0,0-.28,0-.33,0s-.3,0-.3,0c-.19,0-.38-.01-.57-.04-.48-.02-1-.06-1.3-.1-1.48-.17-2.79-.73-3.87-1.45-.76,1.09-2.03,1.8-3.46,1.8h-.28Z"/><path class="cls-3" d="M200.87,9.56c-2.21,0-4.01-1.8-4.01-4.01v-.4c0-2.21,1.8-4.01,4.01-4.01h2.48c.77-1.05,2.01-1.73,3.4-1.73h.28c1.4,0,2.64.68,3.4,1.73h2.94c2.22,0,4.02,1.8,4.02,4.01v.4c0,2.21-1.8,4.01-4.02,4.01h-12.5Z"/><path class="cls-3" d="M65.66,28.06c-2.32,0-4.21-1.89-4.21-4.21v-1.15h-2.57c-2.32,0-4.21-1.89-4.21-4.21,0-1.3.54-2.44,1.41-3.22-.28-.56-.43-1.19-.43-1.86,0-.93.28-1.78.75-2.47-.04-.04-.08-.07-.11-.11-.8-.8-1.24-1.86-1.24-2.99,0-1.72.96-3.18,2.36-3.87-.08-1.59.75-3.16,2.23-3.94.61-.32,1.29-.49,1.96-.49,1.56,0,2.99.86,3.72,2.24l.48.9.54-1.02c.72-1.38,2.15-2.25,3.72-2.25.68,0,1.36.17,1.96.49,1.58.84,2.4,2.54,2.21,4.21,1.26.73,2.1,2.09,2.1,3.65,0,1.26-.52,2.38-1.34,3.16.47.68.75,1.51.75,2.39,0,.72-.17,1.39-.46,1.97.84.77,1.37,1.87,1.37,3.1,0,2.42-1.89,4.31-4.22,4.31h-2.33v1.15c0,2.32-1.89,4.21-4.21,4.21h-.24Z"/><path class="cls-3" d="M189.01,14.65c-2.21,0-4-1.8-4-4.01v-.39s-10.76,0-10.76,0v.39c0,2.21-1.8,4.01-4.01,4.01h-.54c-2.21,0-4.01-1.8-4.01-4.01v-4.78c0-2.21,1.8-4,4.01-4h.31c.4-.74,1-1.33,1.76-1.72.56-.3,1.25-.48,1.94-.48,1.01,0,1.97.36,2.72.99.23-.19.48-.36.75-.5.6-.32,1.28-.49,1.97-.49,1.47,0,2.83.76,3.59,2.01.75-1.24,2.11-2.01,3.59-2.01.69,0,1.38.17,1.99.5.73.37,1.34.98,1.74,1.73,1.99.24,3.53,1.93,3.53,3.97v4.78c0,2.21-1.8,4.01-4.01,4.01h-.55Z"/><path class="cls-3" d="M51.63,27.91c-.73,0-1.44-.27-2-.76-.64-.57-1-1.38-1-2.24v-2.33c0-1.32.85-2.45,2.05-2.85l.85-2.66c.06-.18.13-.35.22-.51.66-1.35,1.96-2.24,3.47-2.35.07,0,.15,0,.22,0h2.12c.96,0,1.87.46,2.44,1.25.56.78.72,1.79.41,2.71l-1.75,5.22c-.09.26-.21.51-.37.74-.69,1.01-2.31,3.38-5.61,3.75h0c-.17.01-.44.03-.69.03,0,0-.3.01-.37.01Z"/><path class="cls-3" d="M57.38,12.05c-.65,0-1.3-.21-1.84-.63-1.38-1.07-2.57-1.93-3.91-2.69-.07-.04-.15-.09-.22-.14-1.15-.79-1.83-2.09-1.83-3.47v-2.19c0-1.02.52-1.98,1.39-2.53.49-.31,1.05-.47,1.61-.47.43,0,.86.09,1.26.28,1.82.84,3.13,1.58,4.67,2.63.09.06.18.13.26.2,0,0,.02.01.03.02.99.79,1.58,1.99,1.58,3.28v2.71c0,1.14-.65,2.19-1.68,2.69-.42.21-.87.31-1.32.31Z"/><path class="cls-3" d="M100.71,13.72c-.91,0-1.79-.42-2.37-1.16-.93-1.2-1.58-1.95-2.26-2.6-.07-.07-.14-.14-.21-.22-.67-.78-1.03-1.83-1.03-2.95v-2.19c0-1.15.65-2.19,1.69-2.7.42-.2.87-.3,1.31-.3.66,0,1.31.22,1.85.64,1.16.91,1.99,1.68,2.94,2.76.09.1.17.2.24.31.54.74.84,1.69.84,2.69v2.72c0,1.28-.82,2.42-2.03,2.84-.32.11-.65.16-.97.16Z"/><path class="cls-3" d="M97.83,22.86c-.45,0-.9-.1-1.32-.31-1.03-.5-1.68-1.55-1.68-2.69v-2.19c0-1.12.37-2.17,1.03-2.95.07-.08.14-.15.21-.22.69-.66,1.35-1.41,2.26-2.6.58-.75,1.46-1.17,2.38-1.17.32,0,.65.05.97.16,1.22.41,2.03,1.56,2.03,2.84v2.72c0,1.02-.3,1.98-.86,2.73-.07.1-.14.19-.22.28-.99,1.11-1.81,1.89-2.95,2.77-.54.42-1.19.63-1.84.63Z"/><path class="cls-3" d="M57.38,17.61c-.66,0-1.31-.21-1.84-.63-1.61-1.26-2.71-2.01-3.91-2.7-.07-.04-.14-.08-.21-.13-1.15-.79-1.84-2.09-1.84-3.47v-2.2c0-1.03.53-1.98,1.39-2.53.49-.31,1.05-.47,1.61-.47.43,0,.87.09,1.28.29,1.83.86,3.13,1.6,4.66,2.63,0,0,.04.03.06.04,1.13.79,1.8,2.07,1.8,3.46v2.72c0,1.15-.65,2.19-1.68,2.69-.42.2-.87.3-1.32.3Z"/><path class="cls-3" d="M80.15,24.94c-2.18-.05-3.96-1.77-4.11-3.93-.01-.11-.02-.23-.02-.34v-1.14c0-.99.47-1.86,1.21-2.41-.77-.78-1.2-1.8-1.2-2.88v-1c0-.1-.01-.2-.01-.3v-2.33c0-1.31.84-2.44,2.04-2.84l.42-1.39c.05-.18.13-.36.21-.53.03-.06.07-.12.11-.19.7-1.27,1.95-2.09,3.36-2.21.08,0,.16,0,.24,0h1.94c.94,0,1.83.44,2.39,1.19.23.3.39.63.49.98h6.02c2.32,0,4.21,1.86,4.21,4.15,0,.58-.12,1.13-.34,1.63.71.74,1.15,1.74,1.15,2.84,0,1.2-.53,2.29-1.37,3.04,1.08.76,1.79,2.02,1.79,3.44,0,2.32-1.89,4.2-4.2,4.2-.56,0-1.57,0-1.97-.06-3.11-.36-4.72-2.54-5.45-3.61-.7,1.02-2.37,3.25-5.51,3.62-.23.02-.57.04-.97.06,0,0-.25.01-.29.01-.04,0-.09,0-.13,0Z"/><path class="cls-3" d="M120.25,28.15c-2.53,0-4.96-1.31-6.56-3.51l-1.86-2.28c-.73-.9-.88-2.14-.39-3.18.5-1.05,1.55-1.71,2.71-1.71h3.47c.84,0,1.64.35,2.21.97l.95,1.04c.06.07.12.14.18.21.06.08.16.15.22.19,1.43.25,2.47,1.5,2.47,2.95v2.31c0,1.55-1.18,2.85-2.73,2.99-.23.02-.46.03-.68.03h0Z"/><path class="cls-3" d="M98.56,28.14c-1.65,0-2.99-1.33-3-2.98v-1.36c0-.1,0-.2,0-.3.09-1.64,1.13-3.04,2.58-3.65V5.53c0-.07,0-.14,0-.21.09-2.17,1.83-3.93,4.01-4.03.08,0,.16-.01.24-.01h1.44c.06,0,.12,0,.19,0h3.72c.65-.99,1.76-1.67,3.07-1.82.11-.01.22-.02.34-.02h.66c.11,0,.22,0,.33.02,1.31.15,2.41.84,3.06,1.82h3.87c.07,0,.15,0,.22,0,2.32,0,4.21,1.86,4.21,4.14,0,.65-.15,1.26-.43,1.81.2.48.31,1,.31,1.55v.26c0,.49-.08.96-.24,1.39.08.46.05.92-.07,1.35.09.15.17.3.23.46.33.82.28,1.74-.14,2.52l-1.03,1.93c-.14.26-.31.49-.51.7,0,0,0,1.4,0,1.44-.09,2.21-1.86,3.96-4.04,4.04-.08,0-.16,0-.23,0h-.72c-.78,5.22-5.55,5.22-8.22,5.22-.8,0-1.57-.32-2.14-.89-.4-.4-.67-.91-.79-1.45-1.95,2.4-5.49,2.4-6.94,2.4Z"/><path class="cls-3" d="M104.06,28.17c-.67,0-1.33-.22-1.86-.65-.72-.57-1.14-1.44-1.14-2.35v-2.68c0-1.36.91-2.53,2.19-2.89.05-.05.11-.13.19-.24.06-.08.12-.15.19-.23l.65-.71c.57-.62,1.37-.97,2.21-.97h3.51c1.16,0,2.22.67,2.71,1.72s.34,2.29-.4,3.19l-1.54,1.87c-1.02,1.46-2.56,3.03-6.02,3.85-.23.05-.46.08-.69.08Z"/><path class="cls-3" d="M134.24,28.06c-1.39,0-2.65-.66-3.44-1.75-.12-.15-.23-.32-.33-.49l-.21-.39h-.27c-.09,0-.18,0-.28-.01-1.39-.08-2.68-.86-3.39-2.09-.02-.04-.41-.76-.41-.76h-2.92c-2.21,0-4.01-1.79-4.01-4v-.26c0-1.26.58-2.38,1.49-3.12v-6.53c-.91-.74-1.49-1.86-1.49-3.12v-.26c0-2.21,1.8-4.01,4.01-4.01h6.54c.76-1.12,2.04-1.86,3.49-1.86h.29c1.45,0,2.74.74,3.5,1.86h6.31c2.21,0,4.01,1.8,4.01,4.01v.26c0,1.19-.52,2.26-1.35,3,0,0,0,6.87,0,6.9.75.73,1.21,1.74,1.21,2.87v.26c0,1.96-1.42,3.59-3.28,3.93-.72,2.65-2.76,5.38-6.39,5.55-.05,0-.1,0-.14,0h-2.93Z"/><path class="cls-3" d="M162.99,28.1c-.11,0-.23,0-.34-.02h0c-1.25-.09-2.39-.74-3.11-1.75-.12-.15-.22-.31-.32-.48l-1.05-1.98c-.49-.93-.46-2.05.08-2.95.54-.9,1.52-1.45,2.57-1.45h.78v-1.75h-3.62c-2.2,0-4-1.8-4-4.02V4.29c0-2.21,1.8-4.01,4.01-4.01h9.4c1.66,0,3,1.34,3,3v1.03c0,.08.01.16.01.24v4.69c0,2.63,0,5.22,0,5.48,0,.08,0,.16,0,.23v5.29c.06,3.09-1.98,7.62-6.72,7.84-.05,0-.09,0-.14,0h-.55Z"/><path class="cls-3" d="M146.35,28.07c-2.21,0-4.01-1.8-4.01-4.01V4.3c0-2.21,1.8-4.01,4.01-4.01h6.48c.09,0,.18-.01.28-.01h2.51c1.66,0,3,1.34,3,3v3.62c0,.07,0,.14,0,.2v6.62c0,2.21-1.8,4-4,4h-3.67s0,6.35,0,6.35c0,2.21-1.8,4.01-4.01,4.01h-.58Z"/><path class="cls-3" d="M176.56,28.07c-1.45-.1-2.77-.96-3.45-2.24l-1.04-1.96c-.29-.56-.4-1.18-.32-1.79h-2.06c-2.21,0-4.01-1.8-4.01-4.01v-.36c0-2.21,1.8-4.01,4.01-4.01h5.38s0-.04.01-.06h-1.72c-2.21,0-4.01-1.8-4.01-4v-.36c0-2.21,1.8-4,4.01-4h12.5c2.2,0,4,1.79,4.02,3.98v1.39c0,.05,0,.1,0,.16v1.53c.01.47-.04.93-.15,1.38,2.13.08,3.84,1.85,3.84,4.01v.36c0,2.21-1.8,4.01-4.01,4.01h-6.09c-.48,3.26-3.11,5.76-6.37,5.97-.11.01-.22.02-.34.02-.07,0-.14,0-.2,0Z"/><path class="cls-3" d="M196.31,28.07c-2.15,0-3.92-1.7-4.01-3.83-.25.05-.52.09-.78.11-.08,0-.17.01-.25.01-.75,0-1.48-.28-2.03-.79-.62-.57-.97-1.37-.97-2.21v-2.42c0-.98.47-1.86,1.21-2.4l1.84-4.97c-1.22-.69-2.04-2-2.04-3.49v-.51c0-1.87,1.29-3.45,3.03-3.89,0-2.2,1.8-4,4.01-4h.66c2.21,0,4.01,1.8,4.01,4v.46c1.13.71,1.88,1.97,1.88,3.42v.51c0,1.1-.44,2.1-1.16,2.83l2.3,4.32c.49.93.46,2.05-.08,2.95-.54.9-1.52,1.45-2.57,1.45h-.38v4.42c0,2.21-1.8,4.01-4.01,4.01h-.66Z"/><path class="cls-3" d="M215,28.02c-.09,0-.17,0-.26-.01-.13,0-.4-.02-.71-.03-.86-.03-1.42-.05-1.77-.1-3-.35-4.64-2.42-5.38-3.48-.78,1.1-2.39,3.13-5.41,3.48-.33.04-.89.06-1.76.09-.31.01-.58.02-.7.03-.07,0-.14,0-.21,0-.76,0-1.51-.29-2.07-.81-.61-.57-.97-1.37-.97-2.2v-2.38c.02-1.62,1.3-2.94,2.92-2.99.29,0,.61-.03.95-.05.02-.03.04-.06.06-.08l2.04-3.01-.76-1.12h-1.65c-1.05,0-2.03-.55-2.57-1.45-.54-.9-.57-2.02-.08-2.95l2.32-4.38s.05-.1.08-.14c.73-1.22,2.04-1.99,3.44-2.05.08,0,.24,0,.24,0h1.89c.87,0,1.69.38,2.25,1.02.56-.64,1.38-1.02,2.25-1.02h1.89c.08,0,.17,0,.25.01,1.4.07,2.67.81,3.41,2.03.03.05.06.11.09.16l2.32,4.38c.49.93.46,2.05-.08,2.95s-1.52,1.45-2.57,1.45h-1.65l-.76,1.13,2.03,3.01s.04.06.07.09c.34.02.67.04.96.05,1.61.05,2.89,1.37,2.9,2.98v2.38c.01.85-.34,1.65-.96,2.23-.56.51-1.28.79-2.03.79Z"/><path class="cls-3" d="M11.81,30.93c-.63,0-1.27-.2-1.8-.6C-5.92,18.37-2.82,1.12-2.68.39c.2-1.02.91-1.87,1.88-2.24.35-.13.71-.2,1.07-.2.65,0,1.29.21,1.83.62.12.08.76.3,2.11.3.71,0,1.31-.06,1.6-.09,2.41-.24,3.53-.75,3.88-.94.53-.79,1.15-1.27,2.12-1.27h0c.98,0,1.59.48,2.12,1.27.35.19,1.46.7,3.85.94.31.03.92.09,1.63.09,1.34,0,1.98-.22,2.12-.31.53-.41,1.17-.62,1.82-.62.36,0,.72.07,1.07.2.97.37,1.68,1.22,1.87,2.24.14.73,3.24,17.98-12.68,29.94-.53.4-1.17.6-1.8.6Z"/><path class="cls-3" d="M10.81,29.16c-.69,0-1.38-.24-1.93-.7C3.65,24.08.08,18.25-1.45,11.59c-.21-.89,0-1.83.58-2.54s1.43-1.13,2.35-1.13h9.33c.8,0,1.56.32,2.12.88.56.56.88,1.33.88,2.12v15.24c0,1.17-.68,2.23-1.73,2.72-.41.19-.84.28-1.27.28ZM5.53,13.92c.61,1.56,1.37,3.04,2.28,4.43v-4.43h-2.28Z"/><path class="cls-3" d="M12.81,29.16c-.43,0-.86-.09-1.27-.28-1.06-.49-1.73-1.55-1.73-2.72v-15.24c0-.8.32-1.56.88-2.12s1.33-.88,2.12-.88h9.33c.91,0,1.78.42,2.35,1.13.57.71.78,1.65.58,2.54-1.52,6.65-5.09,12.49-10.33,16.87-.55.46-1.24.7-1.93.7ZM15.81,13.92v4.43c.91-1.39,1.67-2.87,2.28-4.43h-2.28Z"/><path class="cls-3" d="M11.81,29.97c-.64,0-1.28-.21-1.82-.62-.21-.16-.42-.32-.61-.49-.69-.57-1.1-1.42-1.1-2.32v-13.09H1.37c-1.41,0-2.63-.99-2.93-2.37-.12-.54-.21-1.07-.29-1.57-.14-.87.11-1.75.68-2.42.57-.67,1.4-1.05,2.28-1.05h21.4c.88,0,1.72.39,2.29,1.06.57.67.82,1.56.67,2.43-.08.5-.18,1.02-.29,1.56-.3,1.38-1.52,2.37-2.93,2.37h-6.9s0,13.09,0,13.09c0,.92-.42,1.78-1.13,2.35-.24.19-.41.32-.58.45-.54.41-1.18.62-1.82.62ZM12.34,26.54h0,0Z"/><path class="cls-3" d="M22.58,11.56H1.03c-1.49,0-2.75-1.09-2.97-2.57-.61-4.19-.21-7.19-.19-7.32C-2,.76-1.47-.04-.67-.5c.79-.46,1.75-.54,2.61-.21.86.34,2.81.36,3.88.25,2.73-.3,4.03-.94,4.28-1.08,1.09-.88,2.34-.88,3.43,0,.25.14,1.55.78,4.29,1.08,1.05.11,3,.09,3.87-.25.86-.33,1.82-.25,2.61.21.79.47,1.32,1.27,1.45,2.18.02.13.42,3.13-.2,7.32-.22,1.47-1.48,2.56-2.97,2.56ZM5.7,5.56h12.2c-.37-.02-.63-.05-.72-.06-2.47-.27-4.21-.78-5.37-1.24-1.15.46-2.89.97-5.35,1.24-.1.01-.37.04-.76.06Z"/><path class="cls-3" d="M8.19,20.28c-.27,0-.53-.03-.78-.09-.25.06-.48.08-.7.08-.31,0-.6-.04-.89-.12-.3.08-.62.13-.96.13-.98,0-1.88-.37-2.56-1.05-.67-.67-1.04-1.57-1.04-2.54,0-.9.32-1.76.89-2.42.51-.64,1.29-1.08,2.15-1.2.38-.56.67-.96.93-1.28.39-.49,1.32-1.66,2.91-1.66.24,0,.47.03.7.08.23-.05.47-.08.73-.08.28,0,.56.04.83.12.81.23,1.54.81,1.91,1.56.28.57.39,1.23.29,1.85.28.36.47.78.56,1.24.23,1.18-.25,2.37-1.22,3.05-.09.08-.2.2-.33.35,0,0-.3.33-.34.38-.5.53-1.54,1.62-3.08,1.62Z"/><path class="cls-3" d="M5.46,10.65c-1.42,0-2.59-.92-2.96-2.22-.92-.49-1.31-1.27-1.46-1.64-.13-.34-.19-.7-.19-1.06,0-1.21.62-2.26,1.85-3.11.56-.38,1.16-.68,1.8-.94.89-.34,1.66-.51,2.37-.51.76,0,1.45.18,2.07.52.05.03.1.06.15.09,1.02.65,1.63,1.74,1.63,2.93,0,.76-.26,1.89-1.48,2.94-.11.09-.21.17-.32.25-.04.12-.09.24-.15.35l-.21.42c-.1.2-.22.38-.36.55-.77.93-1.69,1.41-2.72,1.41Z"/><path class="cls-3" d="M7.56,10.69c-.28,0-.55-.04-.82-.11-.61-.17-1.14-.53-1.53-1.02-.02-.02-.14-.16-.14-.16-.67-.75-.92-1.78-.67-2.75.18-.69.6-1.29,1.16-1.69.56-.51,1.28-.77,2.01-.77.48,0,.96.11,1.4.35l.16.08c.22.11.42.25.6.42.39.35.68.75.88,1.18.17.38.26.79.26,1.21,0,.87-.36,1.66-1.06,2.33-.17.16-.36.31-.57.43l-.18.1c-.46.27-.98.4-1.5.4Z"/><path class="cls-3" d="M10.96,10.59c-.15,0-.31-.01-.46-.04-.54-.08-1.04-.3-1.45-.61-.2-.05-.4-.11-.59-.19-1.2-.48-2.01-1.66-2.01-2.99s.72-2.49,2.15-3.32c.4-1.24,1.57-2.14,2.95-2.14.04,0,.07,0,.11,0,.12-.02.25-.02.37-.02.31,0,.61.05.91.14.21-.05.43-.07.65-.07.02,0,.05,0,.07,0,.15-.02.3-.03.45-.03.69,0,1.37.24,1.91.69.72.6,1.12,1.5,1.08,2.43v.17c-.02.34-.09.68-.22.99l-.1.25c-.02.06-.14.48-.16.56.33,1.18-.05,2.5-1.05,3.25l-.2.15c-.11.09-.23.16-.36.23-.67.37-1.3.55-1.93.55-.32,0-.62-.04-.91-.13-.26.06-.61.13-1.01.13-.03,0-.21,0-.21,0Z"/><path class="cls-3" d="M14.48,10.69c-.88,0-1.74-.39-2.32-1.1-.01-.01-.14-.15-.14-.15-.69-.75-.95-1.79-.71-2.77.18-.71.61-1.33,1.2-1.73.56-.49,1.26-.75,1.98-.75.49,0,.99.12,1.44.37l.15.08c.17.09.33.2.47.32.5.42.86.92,1.05,1.49.11.31.16.64.16.97,0,.9-.37,1.69-1.1,2.36-.15.14-.32.27-.5.37l-.17.1c-.48.28-1,.42-1.53.42Z"/><path class="cls-3" d="M17.96,10.65c-.54,0-1.09-.05-1.64-.15-.11-.02-.21-.04-.31-.07l-.4-.12c-1.34-.39-2.24-1.66-2.15-3.05.03-.55.21-1.07.51-1.51-.07-.19-.1-.34-.12-.43-.03-.18-.05-.36-.05-.55,0-.94.4-2.23,2.3-3.05.74-.32,1.48-.49,2.18-.49,0,0,.53,0,.53,0,.37,0,.75.04,1.11.13,1.17.29,2.06,1.25,2.25,2.44.15.91-.13,1.82-.73,2.48.4,1.21.03,2.61-1.02,3.39-.6.45-1.42.96-2.46.96h0Z"/><path class="cls-3" d="M16.51,20.27c-1.1,0-2.1-.36-2.88-1.03-.64-.55-1.08-1.27-1.28-2.07-.53-.67-.81-1.51-.81-2.4,0-1.33.63-2.57,1.77-3.49.96-.77,2.12-1.18,3.35-1.18.03,0,.34,0,.34,0,.21,0,.42.04.63.09.27-.05.54-.08.8-.08.86,0,1.66.27,2.29.79.05.04.09.08.14.12.71.66,1.1,1.56,1.1,2.55,0,.81-.27,1.59-.81,2.33-.03.04-.05.07-.08.11v.05c0,.66-.18,1.32-.51,1.91-.02.04-.04.07-.07.11-.29.46-.65.86-1.09,1.19-.33.27-.78.52-1.28.7-.07.02-.13.05-.2.07-.2.06-.39.11-.56.14-.36.07-.65.08-.87.08Z"/><path class="cls-1" d="M95.37,22.82h-16.44c-.66,0-1.21-.55-1.21-1.21V5.53s17.15,0,17.15,0c.67,0,1.21-.51,1.21-1.14s-.54-1.13-1.21-1.13h-19.87s.01,20.6.01,20.6c0,.66.55,1.21,1.21,1.21l19.15.02c.66,0,1.21-.51,1.21-1.13s-.55-1.14-1.21-1.14Z"/><path class="cls-1" d="M40.07,13.89h5.55v.86s-5.55,0-5.55,0v-.86ZM40.07,10.82h5.55v.86h-5.55v-.86M37.34,11.68h-5.53v-.86h5.53v.86M37.34,14.74h-5.53v-.86h5.53v.86M48.46,4.93h-8.41v-1.22c0-.66-.55-1.21-1.21-1.21h-.28c-.66,0-1.21.55-1.21,1.21v1.22h-8.59c-.66,0-1.21.51-1.21,1.14s.55,1.14,1.21,1.14h8.59v1.13h-7.09c-.67,0-1.21.54-1.21,1.2v6.48c0,.67.54,1.21,1.21,1.21h5.91l-3.56,3.9c-.55.72-1.45,1.29-2.24,1.34-.61.04-.7.09-1.17.12h-.44v2.46h.64c.09,0,.17,0,.25-.03.42-.02.96-.05,1.23-.08,1.86-.22,3.53-1.48,4.28-2.56h0l2.19-2.68v4.36c0,.67.55,1.21,1.21,1.21h.28c.66,0,1.21-.54,1.21-1.21v-4.4s2.22,2.72,2.22,2.72h0c.74,1.09,2.41,2.35,4.28,2.56.28.04.8.07,1.23.08.08.02.17.03.25.03h.22s.05,0,.08,0h0s.33,0,.33,0v-2.46h-.44c-.46-.03-.55-.08-1.16-.12-.79-.05-1.7-.62-2.24-1.33l-3.57-3.9h5.85c.67,0,1.21-.54,1.21-1.21v-6.48c0-.66-.55-1.2-1.21-1.2h-7.07v-1.13h8.42c.67,0,1.21-.51,1.21-1.14s-.54-1.14-1.21-1.14"/><path class="cls-1" d="M200.87,6.56h12.5c.56,0,1.02-.45,1.02-1.01v-.4c0-.55-.46-1.01-1.02-1.01h-4.1s-1.03,0-1.03,0v-.52c0-.66-.54-1.21-1.21-1.21h-.28c-.67,0-1.21.55-1.21,1.21v.52h-4.67c-.55,0-1.01.46-1.01,1.01v.4c0,.56.45,1.01,1.01,1.01Z"/><path class="cls-1" d="M72.44,17.2h-5.33v-2.57h4.42c.67,0,1.21-.54,1.21-1.21v-.09c0-.66-.55-1.21-1.21-1.21h-4.42v-3.04h1.21s3.8,0,3.8,0c.67,0,1.21-.56,1.21-1.22v-.09c0-.67-.55-1.22-1.21-1.22h-2.25s1.24-2.34,1.24-2.34c.32-.59.09-1.32-.5-1.64-.59-.31-1.33-.09-1.63.51l-1.84,3.48h-2.7l-1.79-3.35c-.31-.59-1.04-.81-1.63-.5-.59.31-.82,1.05-.51,1.64l1.18,2.21h-1.15s-1.31,0-1.31,0c-.67,0-1.21.54-1.21,1.22v.09c0,.66.54,1.22,1.21,1.22h5.2v3.04h-1.21s-3.38,0-3.38,0c-.67,0-1.22.55-1.22,1.21v.09c0,.67.55,1.21,1.22,1.21h4.6v2.57h-1.21s-4.36,0-4.36,0c-.66,0-1.21.54-1.21,1.2v.1c0,.66.55,1.21,1.21,1.21h4.36s1.21,0,1.21,0v4.15c0,.66.54,1.21,1.21,1.21h.24c.67,0,1.21-.54,1.21-1.21v-4.15h5.33c.67,0,1.22-.55,1.22-1.21v-.1c0-.66-.55-1.2-1.22-1.2Z"/><path class="cls-1" d="M189.56,4.86h-2.4s.22-.42.22-.42c.31-.59.09-1.33-.5-1.63-.59-.32-1.32-.09-1.63.49l-.84,1.56h-3.38s-.83-1.56-.83-1.56c-.31-.59-1.05-.81-1.64-.49-.58.3-.81,1.04-.5,1.63l.22.42h-2.69l-.83-1.56c-.32-.59-1.05-.81-1.64-.49-.59.3-.82,1.04-.5,1.63l.23.42h-3.17c-.55,0-1.01.45-1.01,1v4.78c0,.56.45,1.01,1.01,1.01h.54c.56,0,1.01-.45,1.01-1.01v-3.39s16.77,0,16.77,0v3.39c-.01.56.44,1.01.99,1.01h.55c.55,0,1.01-.45,1.01-1.01v-4.78c0-.55-.45-1-1.01-1Z"/><path class="cls-1" d="M54.41,17.97s0,0-.01.01l-1.04,3.25c-.37,1.02-.74,1.24-1.51,1.28-.31.02.1.04-.22.06v2.33c.07,0,.65-.01.72-.03,1.79-.2,2.75-1.42,3.46-2.46l1.75-5.22h-2.12c-.48.04-.87.35-1.04.77Z"/><path class="cls-1" d="M53.12,6.12c1.43.81,2.69,1.71,4.26,2.93v-2.71c0-.41-.21-.78-.53-.99,0-.01,0-.02-.01-.02-1.47-1-2.64-1.64-4.25-2.39v2.19c0,.41.21.78.53,1Z"/><path class="cls-1" d="M100.71,10.72v-2.72c0-.42-.13-.78-.32-1,0,0,0,0,0-.02-.88-.99-1.59-1.64-2.55-2.39v2.19c0,.42.12.78.31,1,.86.82,1.62,1.72,2.56,2.93Z"/><path class="cls-1" d="M100.38,17.47s0-.01,0-.01c.2-.22.32-.58.32-1v-2.72c-.94,1.22-1.7,2.11-2.56,2.93-.19.22-.31.58-.31,1v2.19c.96-.75,1.67-1.4,2.55-2.39Z"/><path class="cls-1" d="M53.12,11.67c1.43.82,2.69,1.71,4.26,2.94v-2.72c0-.42-.21-.79-.53-1.01,0,0,0,0-.01-.01-1.47-.99-2.64-1.64-4.25-2.4v2.2c0,.41.21.78.53,1Z"/><path class="cls-1" d="M82.2,18.24c-1.04,1.56-2.27,1.23-3.03,1.28-.04,0-.1,0-.15,0v1.14s0,.03,0,.05c0,.68.55,1.22,1.22,1.22.01,0,.02,0,.02,0,.4-.02.76-.04.91-.05,1.79-.21,2.76-1.42,3.47-2.47h0l2.38-3.53,2.39,3.53h0c.72,1.05,1.68,2.26,3.47,2.47.22.03,1.55.04,1.57.04.67,0,1.2-.53,1.2-1.2,0-.67-.54-1.21-1.2-1.21-.05,0-.26,0-.31,0-.76-.05-1.24.27-2.28-1.28h0l-1.93-2.86h4.08c.67,0,1.21-.51,1.21-1.13,0-.63-.54-1.14-1.21-1.14h-4.15s-1.24,0-1.24,0v-2.21h4.59c.66,0,1.21-.5,1.21-1.13s-.54-1.15-1.21-1.15h-9.52s.62-2.17.62-2.17h-1.94c-.47.04-.87.35-1.03.77,0,0-.01.01-.02.02l-.61,2.02c-.38,1.03-.75,1.24-1.51,1.28-.31.02.1.04-.21.07v2.33c.07,0,.64-.01.71-.02,1.53-.18,2.47-1.1,3.15-2.02h2.46v2.21h-6.31s0,1.14,0,1.14c0,.62.56,1.13,1.23,1.13h3.86s-1.93,2.86-1.93,2.86Z"/><path class="cls-1" d="M118.57,21.5l-.95-1.04h-3.47l1.86,2.28h0c.9,1.31,2.58,2.57,4.63,2.39v-2.31c-.75-.11-1.57-.65-2.08-1.32Z"/><path class="cls-1" d="M108.42,17.87v-.96h7.51v.96h-7.51ZM108.42,14.12h7.51s0,.97,0,.97h-7.51v-.97M110.82,10.05h2.2c.42.57.97,1.24,1.85,2.07h-5.91c.81-.76,1.41-1.47,1.86-2.07M118.41,10.04c-.34.4-.45.55-1.34,1.51-.72-.56-1.18-1.06-1.56-1.51h2.9M117.36,19.87s.04,0,.06,0c.66,0,1.19-.52,1.21-1.17v-3.83c.33.19.54.28.86.42l1.03-1.93c-.59-.2-1.09-.38-1.85-.81.53-.48,1.06-1.01,1.53-1.59l-1.57-.9h.88c.49,0,.88-.45.88-1.01v-.26c0-.56-.45-1.01-1.01-1.01h-7.11c.08-.15.16-.35.36-1.21h6.67s0,0,0,0c.66,0,1.21-.52,1.21-1.13s-.54-1.14-1.21-1.14h0s-6.45,0-6.45,0v-.97h-.02c0-.43-.44-.81-1.02-.87h-.66c-.52.06-.94.37-1.01.76v1.08h-6.31s-1.44,0-1.44,0c0,0-.03,0-.04,0-.67,0-1.21.54-1.21,1.21,0,.01,0,.02,0,.03v15.97s0,0,0,.01h0c0,.56-.45,1.01-1.01,1.01h-.31s-.03,0-.05,0c-.67,0-1.21.54-1.21,1.21,0,.02,0,.02,0,.04v1.36c3.95,0,5.29-.92,5.29-3.76v-7.9s0,0,0,0h0v-5.7c0-.67.54-1.21,1.2-1.21h5.23c-.23.82-.33,1-.44,1.21h-4.44c-.56,0-1.01.45-1.01,1.01v.26c0,.56.45,1.01,1.01,1.01h1.92s.56,0,.56,0h.45c-.56.63-1.13,1.08-1.43,1.31-.88-.92-.98-1.02-1.24-1.27l-1.33,1.19c.36.29.44.36,1.09,1.09-.4.24-.84.71-1.57,1.1h0s.97,1.83.97,1.83c.21-.12.67-.43.78-.48,0,0,.04-.04.12-.09v3.88s.01.03.01.05c0,.66.54,1.21,1.2,1.21.02,0,.03,0,.05,0h4.08v1.58s0,0,0,0h0c0,.57-.44,1.01-1.01,1.01h-1.58l-.04,2.61c4.02,0,5.33-.47,5.33-3.76v-1.46s3.61,0,3.61,0"/><path class="cls-1" d="M106.49,20.46l-.65.71c-.51.67-1.02,1.22-1.77,1.32v2.68c2.82-.67,3.7-1.84,4.33-2.76h0l1.6-1.95h-3.51Z"/><path class="cls-1" d="M140.07,9.97v.86h-5.55v-.86h5.55ZM140.07,13.89h-5.55v-.85h5.55v.85M131.81,10.83h-5.55v-.86h5.55v.86M131.81,13.89h-5.55v-.85h5.55v.85M143.12,4.28h-8.59v-.65c0-.66-.55-1.21-1.22-1.21h-.29c-.66,0-1.21.54-1.21,1.21v.65h-8.82c-.55,0-1.01.45-1.01,1.01v.26c0,.56.45,1.01,1.01,1.01h7.81s1.01,0,1.01,0v.93h-7.32c-.56,0-1.01.46-1.01,1.01v6.87c0,.55.45,1.01,1.01,1.01h12.68s1.01,0,1.01,0v.93h-15.19c-.55,0-1.01.45-1.01,1.01v.26c0,.55.45,1,1.01,1h4.73l1.19,2.24c.21.36.6.61,1.04.61.02,0,.02,0,.04,0h2.07l-1.51-2.86h7.63v.11c0,.86.5,2.75-2.5,2.75h-3.62l1.05,1.98s.02,0,.02,0c.21.38.6.64,1.07.64h2.96c2.99-.14,3.86-3.42,3.83-4.84v-.64h1.97c.56,0,1.01-.45,1.01-1v-.26c0-.55-.45-1.01-1.01-1.01h-.97s-1,0-1,0v-.93h.89c.48,0,.88-.46.88-1.01v-6.87c0-.56-.46-1.01-1.01-1.01h-6.24s-1,0-1,0v-.93h8.59c.55,0,1.01-.45,1.01-1.01v-.26c0-.56-.45-1.01-1.01-1.01"/><path class="cls-1" d="M164.56,7.67h-4.81v-1.85h4.81v1.85ZM164.56,12.11h-4.81v-1.85h4.81v1.85M167.4,14.72c0-.26,0-2.84,0-5.48v-4.69h0c0-.77,0-1.27,0-1.27h-1.78c-.55,0-1.46,0-2.02,0h-5.61c-.56,0-1.01.46-1.01,1.01v9.41c0,.56.45,1.01,1.01,1.01h6.62v4.9s.45,2.85-2.54,2.85h-1.24l1.05,1.98s.02,0,.03.01c.2.35.56.6.98.63h0s.09.01.09.01h.57c2.99-.14,3.89-3.43,3.86-4.85v-5.53h0"/><path class="cls-1" d="M152.92,7.67h-4.88v-1.85h4.88v1.85ZM152.92,12.11h-4.88v-1.85h4.88v1.85M153.11,3.29h-6.76c-.55,0-1.01.46-1.01,1.01v9.42c0,.55,0,1.46,0,2.01v8.33c0,.55.46,1.01,1.01,1.01h.58c.56,0,1.01-.46,1.01-1.01v-9.34s6.67,0,6.67,0c.55,0,1-.45,1-1v-6.83h0v-3.62h-2.51"/><path class="cls-1" d="M189.56,16.71h-7.92s-1.01,0-1.01,0v-1.13c0-.23.18-.41.41-.41h3.02c1.56,0,2.83-1.26,2.83-2.81v-1.7s-.01,0-.01,0v-1.38c0-.55-.46-1-1.02-1h-12.5c-.55,0-1.01.45-1.01,1v.36c0,.55.46,1,1.01,1h10.7v1.74c0,.22-.18.4-.41.4h-3.69c-1.12,0-2.02.91-2.02,2.02v1.9h-8.25c-.55,0-1.01.45-1.01,1.01v.36c0,.56.45,1.01,1.01,1.01h7.24s1.01,0,1.01,0v2.36s0,0,0,0h0c0,.56-.45,1.02-1.01,1.02h-2.2s1.04,1.98,1.04,1.98c.19.36.56.61.99.64h0c2.07-.07,3.64-1.71,3.78-3.76v-2.23h1.01s8.01,0,8.01,0c.55,0,1.01-.45,1.01-1.01v-.36c0-.56-.45-1.01-1.01-1.01Z"/><path class="cls-1" d="M197.98,10.29v-1.21h.94c.52,0,.94-.45.94-1.01v-.51c0-.55-.42-1.01-.94-1.01h-.94v-2.87c0-.55-.46-1.01-1.01-1.01h-.66c-.56,0-1.01.45-1.01,1.01v2.87h-1.01s-1.01,0-1.01,0c-.56,0-1.01.46-1.01,1.01v.51c0,.56.45,1.01,1.01,1.01h2.02v.35l-3.39,9.18h0c-.07.16-.24.33-.63.33v2.42c1.65-.14,2.59-1.16,3.08-2.49l.95-2.59v7.78c0,.56.45,1.01,1.01,1.01h.66c.55,0,1.01-.45,1.01-1.01v-7.75s0-1.01,0-1.01l.7,1.33h2.67l-3.37-6.35Z"/><path class="cls-1" d="M214.99,22.64c-.54-.02-1.21-.07-1.86-.11-.75-.05-.98-.6-1.51-1.29l-3.21-4.76,3.11-4.6.09.17h0c.11.18.3.31.52.31h2.3l-2.32-4.38c-.22-.36-.6-.6-1.06-.6-.01,0-.03,0-.05,0h-1.89s1.05,1.9,1.05,1.9l-3.31,4.9-3.31-4.9,1.06-1.9h-1.89s-.03,0-.06,0c-.44,0-.84.25-1.05.6l-2.32,4.38h2.3c.22,0,.42-.12.53-.31h0s.09-.17.09-.17l3.11,4.6-3.21,4.76c-.52.68-.75,1.23-1.51,1.29-.63.04-1.31.09-1.85.11v2.38c.3-.03,1.93-.06,2.35-.11,1.79-.21,2.75-1.42,3.47-2.46h0l2.29-3.4,2.29,3.4h0c.71,1.04,1.67,2.25,3.47,2.46.42.05,2.05.08,2.36.11v-2.38Z"/><path class="cls-4" d="M23.34.96c-1.62,1.25-5.1.89-5.86.81-4.46-.45-5.68-1.77-5.68-1.77,0,0-1.22,1.32-5.68,1.77-.76.07-4.23.44-5.86-.81C.27.96-2.8,16.96,11.81,27.93,26.42,16.96,23.34.96,23.34.96Z"/><path class="cls-2" d="M10.8,26.16C5.07,21.35,2.55,15.59,1.47,10.92h9.33s0,15.24,0,15.24"/><path class="cls-2" d="M12.81,26.16v-15.24s9.33,0,9.33,0c-1.07,4.68-3.59,10.44-9.33,15.24"/><path class="cls-5" d="M12.34,10.45v16.09c-.18.14-.35.28-.54.42-.18-.14-.36-.28-.53-.42V10.45s-9.9,0-9.9,0c-.11-.49-.19-.97-.26-1.42h21.4c-.07.46-.16.93-.27,1.42h-9.9"/><path class="cls-2" d="M22.58,8.56H1.03c-.56-3.82-.19-6.48-.19-6.48,1.74.68,4.53.51,5.28.44,4.1-.46,5.68-1.59,5.68-1.59,0,0,1.58,1.14,5.68,1.6.75.08,3.55.24,5.29-.44,0,0,.36,2.66-.2,6.48"/><path class="cls-4" d="M7.82,13.65l.22-.38c-.16.11-.4.41-.73.88-.15.22-.33.49-.53.79-.21.33-.42.66-.61.99l-.09.16c-.47.79-.88,1.19-1.22,1.19-.18,0-.32-.06-.43-.17-.11-.11-.17-.25-.17-.42s.05-.34.16-.47c.1-.13.23-.19.37-.19.1,0,.18.03.23.08.05.05.07.12.07.22,0,.09-.02.15-.07.2-.04.05-.13.09-.25.11-.12.03-.2.06-.25.11-.05.05-.07.11-.07.17s.04.12.12.17c.08.06.16.1.26.1.29,0,.69-.43,1.2-1.27l.47-.77c.41-.63.76-1.13,1.05-1.49.29-.36.48-.54.57-.54l.05.02.02.05c0,.07-.1.36-.31.86l-.13.32c-.14.37-.29.73-.42,1.1-.11.28-.2.53-.28.74-.12.35-.2.62-.22.82.26-.52.54-1.01.82-1.49.27-.45.54-.88.82-1.27.56-.76.92-1.15,1.08-1.15l.06.02.02.04-.31.74c-.09.2-.19.44-.29.71-.08.22-.18.46-.27.71-.09.25-.16.46-.21.61-.06.16-.11.33-.16.49-.04.13-.06.24-.08.34-.02.11-.04.18-.04.24l.02.06.04.02s.11-.05.23-.16l.61-.62c.28-.29.5-.51.66-.64.15-.13.25-.2.31-.2h.05s.02.01.02.01c-.15.08-.43.34-.83.78l-.3.32v.02c-.45.46-.75.69-.92.69-.13,0-.23-.06-.31-.17-.08-.1-.12-.25-.12-.43s.05-.42.14-.69c.1-.26.26-.6.5-1.01.07-.12.26-.41.56-.88l.54-.83c-.23.16-.49.45-.8.86-.31.42-.66.96-1.06,1.64-.07.11-.15.26-.24.43-.11.2-.2.37-.27.52-.18.37-.33.56-.43.56-.1,0-.18-.06-.24-.17-.05-.11-.08-.26-.08-.43,0-.42.48-1.42,1.44-3.01Z"/><path class="cls-4" d="M7.28,5.39c-.22.18-.49.35-.8.52-.24.12-.39.19-.46.21l-.12.44c-.08.32-.12.53-.12.62,0,.02,0,.03.01.03h.01s.04-.03.06-.04l.23-.26-.21.42c-.18.21-.31.32-.41.32-.06,0-.09-.04-.09-.12,0-.22.03-.52.1-.89l.21-1.11c.08-.43.13-.76.16-1,.29-.07.47-.11.53-.1h.09s.01.08.01.08l-.08.17-.23.86-.12.42c.1-.03.27-.12.51-.27.35-.22.52-.41.52-.6,0-.14-.05-.27-.13-.4-.12-.19-.29-.28-.52-.28-.34,0-.76.14-1.26.41-.49.27-.74.54-.74.8,0,.04.02.08.04.11l.14.15h-.13s-.05.01-.05.01c-.11,0-.23-.02-.36-.04-.15-.03-.23-.08-.24-.11,0-.17.19-.39.56-.64.33-.22.72-.43,1.18-.61.51-.2.94-.3,1.28-.3.25,0,.44.05.61.14.16.1.24.24.24.4,0,.2-.14.42-.43.67Z"/><path class="cls-4" d="M7.74,7.58l-.18.1c-.03-.06-.08-.11-.15-.18l-.1-.11c.07-.02.16-.1.27-.21l.16.08c.07.06.12.12.13.16,0,.03-.05.08-.13.16Z"/><path class="cls-4" d="M14.1,4.32v.17s-.14.32-.14.32c-.04.1-.09.28-.16.51-.07.24-.12.46-.17.67-.12.48-.17.84-.17,1.11,0,.06,0,.12.02.15.01.02.03.03.05.03.03,0,.06-.01.09-.03l.1-.05.04.06-.2.15c-.22.12-.37.17-.49.17s-.16-.05-.16-.17c0-.17.03-.39.08-.67.01-.1.04-.24.08-.43.03-.14.09-.36.17-.66h-.22s-.28,0-.28,0h-.54c-.06.01-.13.01-.22.02-.05,0-.14,0-.29.03l-.15.6c-.03.13-.08.32-.12.58-.03.16-.04.28-.04.37,0,.07.02.11.06.14.04.03.11.04.23.04l-.13.1c-.18.05-.32.07-.43.06h-.15c-.09-.01-.15-.07-.15-.17l.05-.24.13-.57.18-.85c-.24.05-.49.15-.73.29-.35.2-.52.41-.52.65,0,.06.01.12.04.16l.12.1s-.05.07-.15.07c-.11,0-.21-.02-.3-.06-.12-.05-.17-.12-.17-.22,0-.32.41-.66,1.22-1.01.17-.07.35-.13.53-.18l.26-1.21s.03-.07.09-.07c0,0,.04,0,.13.01h.09s.12-.01.12-.01l.13-.02v.14s-.08.26-.08.26l-.21.79.35-.05c.1-.01.22-.02.38-.03l.83-.02c.06-.23.15-.57.28-1.02l.18.02h.17s.17-.05.17-.05Z"/><path class="cls-4" d="M14.65,7.58l-.18.1c-.04-.06-.08-.11-.16-.18l-.1-.11c.07-.02.17-.1.28-.21l.15.08c.08.06.12.12.13.16,0,.03-.04.08-.13.16Z"/><path class="cls-4" d="M18.03,4.47c-.19-.02-.35.01-.48.07-.09.04-.13.08-.13.12,0,.05.01.09.03.13l.14.11s-.07.04-.09.04c-.02,0-.05.01-.08.01-.4,0-.6-.06-.62-.16,0-.06.17-.16.49-.3.37-.16.7-.24.99-.24.06,0,.15,0,.27,0,.12,0,.21,0,.27,0,.13,0,.26.01.4.05-.29.18-.44.27-.48.27h-.11s-.04,0-.05,0l-.13-.02c-.07.2-.15.54-.24,1.04-.04.18-.06.36-.1.55-.04.21-.08.39-.13.54-.08.29-.19.48-.31.56.24.07.42.09.54.09l.21-.02c.06-.01.11-.03.17-.06l.04.06c-.32.24-.55.36-.67.36-.34,0-.71-.03-1.11-.1l-.4-.12c.15-.02.27-.06.35-.12.03-.02.13-.09.29-.21.09.03.17.05.23.05.13,0,.23-.09.29-.26.03-.15.05-.28.07-.4,0-.04.02-.17.03-.37l.05-.85c.02-.29.06-.51.12-.68.01-.04.06-.08.14-.11Z"/><path class="cls-4" d="M18.83,13.24c-.1-.08-.24-.12-.4-.12-.21,0-.47.07-.77.23-.29.16-.6.36-.93.62-.3.25-.56.5-.78.76-.23.26-.41.54-.56.81-.21-.02-.37-.08-.47-.18-.1-.1-.15-.23-.15-.4,0-.21.1-.44.29-.72.19-.27.42-.5.71-.69.08-.06.16-.1.24-.15.09-.04.17-.07.26-.11.17-.06.33-.09.49-.09h.17s.02-.03.03-.05c0-.04-.03-.05-.07-.06h-.24c-.55,0-1.04.16-1.47.51-.43.35-.65.73-.65,1.15,0,.24.07.44.22.6.13.15.33.25.6.27l-.08.3c-.03.1-.04.18-.04.25,0,.32.12.57.36.78.23.2.54.3.91.3.1,0,.19,0,.28-.02.08-.02.18-.04.29-.08.2-.07.37-.17.52-.29.15-.11.27-.24.36-.39.08-.15.12-.29.12-.43,0-.18-.06-.32-.16-.42-.11-.1-.26-.14-.43-.14-.24,0-.45.09-.63.27-.17.19-.26.43-.26.7v.05l.02.07s.02.01.04.03c.04,0,.07-.05.09-.14l.04-.15c.08-.26.19-.43.3-.54.14-.12.29-.18.47-.18.12,0,.22.04.3.13.08.09.12.19.12.32,0,.13-.05.26-.11.39-.08.13-.19.25-.34.37-.16.12-.32.21-.49.27-.18.07-.35.11-.51.11-.22,0-.38-.05-.49-.15-.1-.11-.16-.27-.16-.46,0-.13.03-.28.1-.45.06-.17.15-.35.27-.55.34-.05.66-.14.96-.27.29-.13.56-.29.82-.48.32-.25.56-.48.72-.68.16-.22.23-.4.23-.56,0-.15-.05-.26-.14-.34ZM18.54,13.92c-.13.2-.29.4-.49.6-.28.28-.57.5-.86.66-.29.15-.59.25-.88.29.39-.65.8-1.19,1.23-1.62.43-.42.74-.64.94-.64.07,0,.13.02.18.07.04.04.06.1.06.18,0,.1-.06.25-.18.46Z"/></g></svg>