<?xml version="1.0" encoding="utf-8"?><!--Generator: Adobe Illustrator 25.0.0, SVG Export Plug-In . SVG Version: 6.00 Build 0)--><svg version="1.1" id="Layer_1" xmlns="http://www.w3.org/2000/svg" xmlns:xlink="http://www.w3.org/1999/xlink" x="0px" y="0px" viewBox="0 0 800 800" style="enable-background:new 0 0 800 800" xml:space="preserve"><style type="text/css">.st0{fill:#FFFFFF;}
	.st1{fill:none;}</style><g><path class="st0" d="M433.3,537.3H370l-61-100l-60.7,100h-59.7l87-133.3l-81.3-128.3h61.3L312,370l54.7-94.3h59.7l-82,130
		L433.3,537.3z"/><path class="st0" d="M488.3,541c-21.8,0.7-42.4-9.5-55-27.3c-14.5-22.6-21.5-49.2-20-76c-1.6-27.1,5.5-54,20.3-76.7
		c13-18,34.1-28.4,56.3-27.7c23-0.8,44.8,10.3,57.7,29.3h1.7c-2.5-13.2-3.8-26.6-4-40V259H600v278.3h-42l-10.3-25.7h-2.3
		C533.2,531.2,511.3,542.4,488.3,541z M507.7,497.7c11.6,1,23-3.6,30.7-12.3C546,473,549.7,458.5,549,444v-6c1.3-16-2.2-32-10-46
		c-7.9-10.1-20.5-15.4-33.3-14c-11.5-0.1-22.1,5.7-28.3,15.3c-7.5,13.9-11,29.6-10,45.3c-1.1,15.3,2.4,30.6,10,44
		C484,492.8,495.6,498.6,507.7,497.7L507.7,497.7z"/></g><path class="st0" d="M633.3,166.7v466.7H166.7V166.7H633.3 M633.3,100H166.7c-36.8,0-66.7,29.8-66.7,66.7v466.7
	c0,36.8,29.8,66.7,66.7,66.7h466.7c36.8,0,66.7-29.8,66.7-66.7V166.7C700,129.8,670.2,100,633.3,100z"/><rect class="st1" width="800" height="800"/></svg>