<?xml version="1.0" encoding="utf-8"?><!--Generator: Adobe Illustrator 25.2.0, SVG Export Plug-In . SVG Version: 6.00 Build 0)--><svg version="1.1" id="katman_1" xmlns="http://www.w3.org/2000/svg" xmlns:xlink="http://www.w3.org/1999/xlink" x="0px" y="0px" viewBox="0 0 3233.26 2425.07" style="enable-background:new 0 0 3233.26 2425.07" xml:space="preserve"><style type="text/css">.st0{fill-rule:evenodd;clip-rule:evenodd;fill:#993D86;}</style><g><path class="st0" d="M1409.43,1275.3c0-19.99-4.45-38.88-4.45-63.32c0-187.75,153.32-341.07,336.62-341.07
		c187.76,0,336.63,153.32,336.63,341.07s-148.88,342.19-336.63,342.19c-139.97,0-259.95-86.66-313.28-212.2h-81.1
		c-86.66,0-168.87-4.46-241.07-14.44v149.98h317.73v66.65h-385.51V1313.1c-91.09-18.9-148.87-52.2-148.87-86.66
		c0-33.33,43.33-72.22,148.87-91.1v-202.2l-427.73,611.03h-86.65l456.61-658.8h443.27v72.22h-317.72v167.75
		c47.77-4.44,105.55-8.88,173.3-8.88c-67.75,0-125.53,8.88-173.3,18.88v125.56c67.77,8.87,154.42,18.87,249.97,18.87h53.33v-4.47
		L1409.43,1275.3L1409.43,1275.3z M2632.59,885.36v658.8h-72.22l-375.49-534.38v534.38h-67.77v-658.8h67.77l375.49,538.8v-538.8
		H2632.59z M1506.08,1337.51c173.31-18.87,297.75-57.75,297.75-111.07c0-43.32-57.75-81.1-245.52-101.1
		c111.09,14.45,187.76,48.88,187.76,77.77c0,33.32-109.98,62.22-264.41,72.2c-4.45-19.99-4.45-38.88-4.45-63.32
		c0-148.87,119.98-268.85,264.4-268.85c148.88,0,269.95,119.98,269.95,268.85c0,149.97-121.09,274.4-269.95,274.4
		C1640.51,1486.38,1549.41,1424.16,1506.08,1337.51L1506.08,1337.51z M1038.36,1246.41c-47.78-10-76.65-28.88-76.65-43.32
		c0-14.44,28.88-34.43,76.65-48.88V1246.41L1038.36,1246.41z"/></g></svg>