<?xml version="1.0" encoding="utf-8"?><!--Generator: Adobe Illustrator 25.0.0, SVG Export Plug-In . SVG Version: 6.00 Build 0)--><svg version="1.1" id="Layer_1" xmlns="http://www.w3.org/2000/svg" xmlns:xlink="http://www.w3.org/1999/xlink" x="0px" y="0px" viewBox="0 0 800 800" style="enable-background:new 0 0 800 800" xml:space="preserve"><style type="text/css">.st0{fill:#FFFFFF;}</style><path class="st0" d="M150,75c-6.9,0-12.5,5.6-12.5,12.5V565c0,4.5,2.4,8.6,6.3,10.8L386.7,716c3.8,2.2,8.4,2.2,12.3,0.1L656,575.2
	c4-2.2,6.5-6.4,6.5-11V87.5c0-6.9-5.6-12.5-12.5-12.5H150z M62.5,87.5C62.5,39.2,101.7,0,150,0h500c48.3,0,87.5,39.2,87.5,87.5
	v476.8c0,32-17.4,61.4-45.5,76.7L435,781.9c-26.8,14.7-59.3,14.3-85.8-0.9L106.3,640.8c-27.1-15.6-43.8-44.5-43.8-75.8V87.5z
	 M250,212.5c0-20.7,16.8-37.5,37.5-37.5h230.8c20.7,0,37.5,16.8,37.5,37.5S539,250,518.3,250H325v85.6h193.3
	c20.7,0,37.5,16.8,37.5,37.5v144.2c0,14.2-8,27.2-20.7,33.5l-115.4,57.7c-10.6,5.3-23,5.3-33.5,0l-115.4-57.7
	c-12.7-6.4-20.7-19.3-20.7-33.5v-28.8c0-20.7,16.8-37.5,37.5-37.5s37.5,16.8,37.5,37.5v5.7l77.9,38.9l77.9-38.9v-83.6H287.5
	c-20.7,0-37.5-16.8-37.5-37.5V212.5z"/></svg>