<?xml version="1.0" encoding="UTF-8"?><svg id="Layer_2" data-name="Layer 2" xmlns="http://www.w3.org/2000/svg" viewBox="0 0 220.18 45.09"><defs><style>.cls-1 {
        fill: #a67c71;
      }</style></defs><g id="_レイヤー_1" data-name="レイヤー 1"><g><path class="cls-1" d="m46.92,15.15c-1.59-.56-2.87,1.07-3.17,2.16-.36,1.35.04,3.51,1.52,3.54,1.24.03,2.48-1.01,2.9-2.17.43-1.2.46-2.93-1.25-3.53Z"/><path class="cls-1" d="m44.41,21.8c-.64-.26-1.37.04-1.63.68-1.07,2.59-2.42,5.09-4.03,7.41-1.6,2.33-3.46,4.49-5.53,6.44-1.04.97-2.13,1.88-3.27,2.72-1.14.84-2.33,1.63-3.58,2.31-1.24.69-2.53,1.28-3.86,1.76-1.33.48-2.7.85-4.1,1.02-1.39.17-2.81.15-4.15-.18-.67-.16-1.31-.41-1.9-.74-.3-.18-.55-.34-.84-.57-.26-.21-.49-.44-.69-.7-.81-1.05-1-2.47-.78-3.81.21-1.35.81-2.64,1.59-3.78.77-1.13,1.8-2.11,2.9-2.99,1.09-.89,2.26-1.7,3.48-2.43,1.21-.75,2.46-1.42,3.74-2.05,1.28-.63,2.58-1.2,3.9-1.7h0s.02-.01.02-.01c.45-.22.75-.7.7-1.22-.06-.69-.66-1.2-1.34-1.14-.77.06-1.45.24-2.1.46-.64.22-1.25.48-1.83.76-1.17.56-2.26,1.21-3.32,1.88-2.11,1.36-4.1,2.84-6.04,4.38-1.91,1.52-3.76,3.09-5.58,4.7.68-1.19,1.37-2.38,2.07-3.55.98-1.67,2.02-3.31,3.04-4.96l3.13-4.91,1.58-2.44,1.59-2.44c1.06-1.62,2.14-3.24,3.21-4.85,1.09-1.61,2.17-3.22,3.27-4.81,1.1-1.6,2.22-3.19,3.35-4.77.03-.05.07-.11.1-.16.37-.69.11-1.56-.58-1.93-.69-.37-1.56-.11-1.93.58-.92,1.71-1.86,3.41-2.81,5.1-.95,1.69-1.93,3.37-2.89,5.05-.99,1.67-1.96,3.35-2.96,5.01l-1.5,2.49-1.5,2.49-3.04,4.96c-1.04,1.64-2.05,3.29-3.12,4.91-1.06,1.63-2.14,3.24-3.25,4.83-1.1,1.6-2.47,3.45-3.66,4.99-.34.43-.35,1.06,0,1.51.42.53,1.19.62,1.72.21l.21-.16h0c.86-.84,1.97-1.95,2.86-2.77.89-.82,1.79-1.64,2.7-2.44.84-.74,1.68-1.47,2.53-2.19-.53,1.02-.91,2.13-1.08,3.28-.11.75-.11,1.53.04,2.29.15.76.47,1.5.95,2.13,1,1.25,2.41,1.95,3.87,2.33,1.47.37,2.98.4,4.45.23,2.95-.34,5.75-1.37,8.35-2.72,2.6-1.36,5.03-3.03,7.25-4.95,2.24-1.9,4.26-4.05,6.09-6.36,1.82-2.32,3.44-4.8,4.83-7.42.02-.03.04-.07.05-.11.26-.64-.04-1.37-.68-1.63Z"/></g><g><path class="cls-1" d="m60.97,29.68c-.05-.36-.02-1.11-.02-1.82v-3.2c0-.62-.02-1.44-.05-1.74l1.96-.08c1.9,0,3.44,1.53,3.44,3.42s-1.54,3.43-3.44,3.43h-1.89Zm.92-.73l.92-.07c1.39,0,2.53-1.18,2.53-2.62s-1.14-2.62-2.54-2.62h-.91v5.32Z"/><path class="cls-1" d="m74.57,29.68c-.29-.02-.98-.03-1.65-.03h-1.69c-.05-.61-.03-1.39-.03-1.82v-3.21c0-.67-.02-1.44-.04-1.74l1.69-.08c.67,0,1.35-.02,1.65-.04l.08.81c-.26.03-.67.04-1.11.04-.2,0-1.4,0-1.4,0l.07,2.06.7-.07c.66,0,1.22,0,1.52-.03l.08.8c-.28.04-.65.04-1.08.04-.16,0-1.29,0-1.29,0l.07,2.51.79-.07c.67,0,1.36,0,1.65-.03l.08.8s0,.04-.02.05c-.01.01-.03.02-.05.02h0Z"/><path class="cls-1" d="m80.92,29.68c-.43,0-.74-.07-1.05-.14-.16-.04-.31-.07-.49-.1l-.06-1.19s.02-.06.05-.07c0,0,.01,0,.02,0,.03,0,.05.01.06.03.24.4.86.69,1.48.69.66,0,1.08-.43,1.08-1.1,0-.63-.5-.97-1.08-1.35-.66-.44-1.42-.95-1.42-2.02,0-1.14.79-1.87,2.01-1.87.32,0,.57.05.81.11.14.03.28.06.43.08l.06,1.13s-.02.07-.06.07c0,0,0,0-.01,0-.03,0-.06-.02-.07-.05-.15-.37-.57-.58-1.16-.58-.65,0-1.05.39-1.05,1.01s.5.94,1.08,1.33c.68.45,1.45.96,1.45,2.05,0,1.16-.86,1.98-2.1,1.98Z"/><path class="cls-1" d="m88.08,29.68c-.05-.38-.03-1.16-.03-1.82v-3.2c0-.66-.02-1.45-.04-1.75l.94-.08c.05.37.04,1.16.04,1.82v3.2c0,.66.02,1.44.04,1.75,0,.02,0,.04-.02.06-.01.01-.03.02-.05.02h-.87Z"/><path class="cls-1" d="m97.59,29.68c-2.09,0-3.67-1.53-3.67-3.55s1.57-3.55,3.65-3.55c.71,0,1.18.12,1.75.33l.05.99s-.02.06-.04.07c-.01,0-.02,0-.03,0-.02,0-.03,0-.05-.02-.43-.36-.94-.52-1.64-.52-1.55,0-2.72,1.16-2.72,2.69s1.19,2.7,2.71,2.7c.47,0,.83-.07,1.03-.19l-.04-1.04c0-.66-.02-.92-.04-1.2l.91-.1c.05.37.03.65.03,1.31v1.66c-.65.27-1.08.41-1.9.41Z"/><path class="cls-1" d="m109.9,29.68c-.3-.34-.47-.54-.78-.9l-3.56-4.23-.02,3.53c0,.51.02,1.13.04,1.4l-.91.08c-.05-.35-.03-.98-.03-1.49v-3.54c0-.59-.02-1.36-.04-1.89l.26-.08c.33.37.51.56.81.9l3.54,4.21v-3.13c0-.56-.02-1.34-.03-1.75l.9-.08c.05.51.04,1.29.04,1.82v3.65c0,.41,0,.85.03,1.42,0,.02,0,.04-.02.05-.01.02-.03.02-.05.02h-.18Z"/><path class="cls-1" d="m124.96,29.68c-.34-.39-1.31-1.65-1.99-2.83-.04.06-.15.06-.26.06h-.53l.07,1.01c0,.66,0,1.38.04,1.68l-.94.08c-.04-.38-.03-1.1-.03-1.77v-3.26c0-.66-.01-1.45-.04-1.74l1.47-.08c1.44,0,2.37.8,2.37,2.03,0,1.3-.96,1.75-1.37,1.88.29.2.56.57.83.95.5.69,1.02,1.4,1.51,1.87.02.02.03.05.02.08-.01.03-.04.05-.07.05h-1.09Zm-2.7-3.44l.56-.07c.79,0,1.34-.53,1.34-1.28,0-.63-.45-1.27-1.44-1.27h-.46v2.63Z"/><path class="cls-1" d="m133.81,29.68c-1.95,0-3.54-1.59-3.54-3.55s1.59-3.54,3.54-3.54,3.54,1.59,3.54,3.54-1.59,3.55-3.54,3.55Zm0-6.25c-1.42,0-2.58,1.21-2.58,2.7s1.16,2.71,2.58,2.71,2.58-1.22,2.58-2.71-1.16-2.7-2.58-2.7Z"/><path class="cls-1" d="m145.46,29.68c-1.95,0-3.54-1.59-3.54-3.55s1.59-3.54,3.54-3.54,3.54,1.59,3.54,3.54-1.59,3.55-3.54,3.55Zm0-6.25c-1.42,0-2.58,1.21-2.58,2.7s1.16,2.71,2.58,2.71,2.58-1.22,2.58-2.71-1.16-2.7-2.58-2.7Z"/><path class="cls-1" d="m157.09,29.68l-2.12-4.79-.4,3.23c-.07.58-.12,1.03-.13,1.4l-.92.07c0-.4.1-1.14.2-1.85l.7-5.06.28-.06,2.53,5.48,2.49-5.44.29-.04.64,5.33c.08.69.14,1.1.23,1.56l-1,.09c-.07-.39-.1-.75-.16-1.4l-.31-3.29-2.08,4.73s-.04.04-.07.04h-.2Z"/><g><path class="cls-1" d="m176.53,29.68c-.22-.25-.38-.47-.72-.83l-2.11-2.29v1.3c0,.73.02,1.44.03,1.75l-.93.08c-.05-.38-.03-1.09-.03-1.82v-3.2c0-.73-.02-1.45-.04-1.74l.94-.08c.06.37.04,1.09.04,1.82v1.23l1.68-1.92c.48-.57.68-.82.89-1.1l1.04-.03s.06.02.07.05c.01.03,0,.06-.02.08-.31.31-.57.6-1.07,1.16l-1.82,2.06,2.24,2.3c.31.35.56.59.79.8l.28.27s.03.05.02.08c-.01.03-.04.05-.07.05h-1.18Z"/><path class="cls-1" d="m182.71,29.68c-.05-.38-.03-1.16-.03-1.82v-3.2c0-.66-.02-1.45-.04-1.74l.94-.08c.05.37.04,1.16.04,1.82v3.2c0,.66.02,1.44.04,1.75,0,.02,0,.04-.02.06-.01.01-.03.02-.05.02h-.87Z"/><path class="cls-1" d="m192.9,29.68c-.34-.39-1.31-1.65-1.99-2.83-.05.06-.15.06-.26.06h-.53l.07,1.01c0,.66,0,1.38.04,1.68l-.94.08c-.04-.38-.03-1.1-.03-1.77v-3.26c0-.66-.01-1.45-.04-1.74l1.47-.08c1.44,0,2.37.8,2.37,2.03,0,1.3-.96,1.75-1.37,1.88.29.2.56.57.83.94.5.69,1.02,1.4,1.51,1.87.02.02.03.05.02.08-.01.03-.04.05-.07.05h-1.09Zm-2.7-3.44l.56-.07c.79,0,1.34-.53,1.34-1.28,0-.63-.45-1.27-1.44-1.27h-.46v2.63Z"/><path class="cls-1" d="m203.54,29.68c-.17-.33-.32-.71-.51-1.15l-.49-1.16-2.49.05-.41,1.1c-.22.52-.35.86-.43,1.12l-.97.05c.16-.53.41-1.04.64-1.59l2.31-5.34.29-.04,2.4,5.38c.24.55.51,1.08.73,1.48.01.02.01.05,0,.07-.01.02-.04.04-.06.04h-1.02Zm-3.15-2.97l1.95-.1-1-2.2-.94,2.31Z"/><path class="cls-1" d="m213.14,29.68c-.34-.39-1.31-1.65-1.99-2.83-.05.06-.15.06-.26.06h-.53l.07,1.01c0,.66,0,1.38.04,1.68l-.94.08c-.04-.38-.03-1.1-.03-1.77v-3.26c0-.66,0-1.45-.04-1.74l1.47-.08c1.44,0,2.37.8,2.37,2.03,0,1.3-.96,1.75-1.37,1.88.29.2.56.57.83.94.5.69,1.02,1.4,1.51,1.87.02.02.03.05.02.08-.01.03-.04.05-.07.05h-1.09Zm-2.7-3.44l.56-.07c.79,0,1.34-.53,1.34-1.28,0-.63-.45-1.27-1.44-1.27h-.46v2.63Z"/><path class="cls-1" d="m219.23,29.68c-.05-.38-.03-1.16-.03-1.82v-3.2c0-.66-.02-1.45-.04-1.74l.94-.08c.05.37.04,1.16.04,1.82v3.2c0,.66.02,1.44.04,1.75,0,.02,0,.04-.02.06-.01.01-.03.02-.05.02h-.87Z"/></g></g></g></svg>