<?xml version="1.0" encoding="utf-8"?><!--Generator: Adobe Illustrator 27.9.0, SVG Export Plug-In . SVG Version: 6.00 Build 0)--><svg version="1.1" id="レイヤー_1" xmlns="http://www.w3.org/2000/svg" xmlns:xlink="http://www.w3.org/1999/xlink" x="0px" y="0px" viewBox="0 0 609.6 52.4" style="enable-background:new 0 0 609.6 52.4" xml:space="preserve"><style type="text/css">.st0{fill:#F1A6BC;}</style><g><g><g><path class="st0" d="M32.8,24.1c-0.2-1.1-1.1-1.9-2.2-1.9s-2,0.8-2.2,1.9l-2.8-0.4c0.4-2.4,2.5-4.3,4.9-4.3l0,0
				c2.5,0,4.6,1.8,4.9,4.3L32.8,24.1z"/><path class="st0" d="M44.5,24.1l-2.8-0.4c0.4-2.4,2.5-4.3,4.9-4.3l0,0c2.5,0,4.6,1.8,4.9,4.3l-2.8,0.4c-0.2-1.1-1.1-1.9-2.2-1.9
				C45.6,22.2,44.7,23,44.5,24.1z"/><path class="st0" d="M38.7,36.1c-3.9,0-7.4-2.9-7.9-6.9l2.8-0.4c0.4,2.5,2.6,4.5,5.1,4.5c2.6,0,4.8-1.9,5.1-4.5l2.8,0.4
				C46,33.2,42.6,36.1,38.7,36.1z"/></g><path class="st0" d="M73,0c-2.4,0-4.1,1.4-4.1,3.9c0,6.1,0,12.2,0,18.3c-1.4-5.1-3.4-8.8-5-11.2c-1.7-2.6-3.2-4.8-5.9-6.7
			c-1.1-0.7-4.4-2.9-9-2.9c-5.2,0-8.8,2.8-9.9,3.7c-1.2-0.9-5-3.8-10.6-3.7c-4.7,0.1-8,2.2-9,2.9c-2.8,1.9-4.2,4.1-5.9,6.7
			c-1.6,2.4-3.6,6.1-5,11.2c0-6.1,0-12.2,0-18.3C8.4,1.4,6.7,0,4.3,0S0,1.4,0,3.9v44.6c0,2.5,1.8,3.9,4.3,3.9s4.1-1.4,4.1-3.9V31.8
			l3.4-3.5L29.5,51c0.8,1.1,1.8,1.4,3.3,1.4c2.3,0,4.3-1.8,4.3-3.9c0-1-0.3-1.9-1-2.8c-3.7-3.8-6.7-7.1-9-9.8
			c-7.5-8.6-8.8-11.5-8.7-14.6c0.1-3,1.5-5.2,2.2-6.1c0.6-1,4-6.1,9.8-6c5,0.1,8.1,4.1,8.5,4.7c0.4-0.6,3.3-4.5,8.1-4.7
			c5.7-0.2,9.1,5,9.8,6c0.6,1,2,3.2,2.2,6.1c0.1,3.1-1.2,6-8.7,14.6c-2.3,2.6-5.3,6-9,9.8c-0.7,0.9-1,1.8-1,2.8c0,2.2,2,3.9,4.3,3.9
			c1.6,0,2.5-0.3,3.3-1.4l17.7-22.7l3.4,3.5v16.8c0,2.5,1.7,3.9,4.1,3.9s4.3-1.4,4.3-3.9V3.9C77.3,1.4,75.5,0,73,0z"/></g><g><g><path class="st0" d="M136.7,25.6v3.9h-13.4l4.3,16.1h-4.1l-4.3-16.1H101v-3.9h17.1l-2.5-9.4h-14.1v-3.9h13.1l-1-3.9h4.1l1,3.9
				h17.6v3.9h-16.5l2.5,9.4C122.3,25.6,136.7,25.6,136.7,25.6z"/><path class="st0" d="M193.1,28.2v4.2l-18.4-6.7v19.9h-3.8V7h3.8v14.5L193.1,28.2z"/><path class="st0" d="M254,25.6v3.9h-13.4l4.3,16.1h-4.1l-4.3-16.1h-18.2v-3.9h17.1l-2.5-9.4h-14.1v-3.9h13.1l-1-3.9h4.1l1,3.9
				h17.6v3.9H237l2.5,9.4C239.5,25.6,254,25.6,254,25.6z"/><path class="st0" d="M310.4,28.2v4.2L292,25.7v19.9h-3.8V7h3.8v14.5L310.4,28.2z"/><path class="st0" d="M348.8,13.7l-7.4-4.5l-9.4,5.9v-4.4l9.3-5.8l7.5,4.6V13.7z M347.9,39.4v3.9l-16,4.4v-3.9l7-1.9V26.1h-6.5
				v-3.4h6.5v-4.3h-5V15h13.7v3.4h-5v4.3h6.5v3.4h-6.5v10.1l2.7-8.2h3.7l-3.3,9.9h-3.1v2.9L347.9,39.4z M334.4,27.8h3.2v12.9h-3.2
				V27.8z M375,13.9h-7.3l2.1,10.4l1.4-4h3.7l-3.6,10.8l3.6,17.4h-3.8L368.9,38l-3.3,9.8H362l5.6-16.5l-3.7-17.4h-10.3v24.7
				l-2.6,9.7h-4l2.9-10.5V10.2h13.3L362,4.7h3.8l1.2,5.5h8.1v3.7H375z M364.5,17.5v3.3h-10.4v-3.3H364.5z M364.2,23.2v17.5h-9.8
				V23.2H364.2z M360.8,37.7V26.2h-3.2v11.5H360.8z M372.4,9.8h-3.6l-1.1-5.1h3.6L372.4,9.8z"/><path class="st0" d="M433.7,44.2v4.2L412,39.2l-21.4,9.1v-4.2l19.1-8.1V23.9h3.9v11.8L433.7,44.2z M433.2,30.9l-20.4-11.3
				L391,31.1v-4.3l28.4-15H404l-9.8,7.4v-4.7l12.9-9.7h6.2l-4.4,3.4h16.8v4.7l-8.9,4.7l16.4,9.1V30.9z M401.4,37.2l-6.1-7.6h4.9
				l6.1,7.6H401.4z M423.2,37.2h-4.9l6.1-7.6h4.9L423.2,37.2z"/><path class="st0" d="M461.5,29.5l-3.7,2.1v16.7h-3.9V33.8l-4.6,2.7V32l4.6-2.7v-12h-4.6v-3.8h4.6V4.7h3.9v8.8h4.4v3.8h-4.4v9.9
				l3.7-2.1V29.5z M490.5,31L478,38.2l14.4,6v4.1l-17.8-7.4l-13.1,7.5V44l9.1-5.3l-5.4-2.2l2.9-5.5h-6v-3.7h7.9l1.5-3h4.3l-1.5,3
				h18.2V31H490.5z M482.8,20.4h9.5V24h-30.5v-3.6h16.7l3.9-7.5h4.3L482.8,20.4z M490.8,8.6v3.6h-27.6V8.6H475V4.5h3.9v4.1H490.8z
				 M470.3,19.9l-3.6-7h4.2l3.6,7H470.3z M472.2,31l-1.9,3.7l3.9,1.6l9.3-5.4h-11.3V31z"/><path class="st0" d="M542.4,18.2h7.3v11h-3.9v-7.4h-32.6v7.4h-3.9v-11h7.2V5.5h26L542.4,18.2L542.4,18.2z M517.3,48.3V23.8h24.3
				v24.5h-3.8v-6.5h-16.7v6.5H517.3z M520.2,9.1v9.1h7.7v-6.8h10.8V9.1H520.2z M537.8,27.6h-16.7V31h16.7V27.6z M521.1,38.2h16.7
				v-3.5h-16.7V38.2z M538.6,18.2v-3.3h-6.9v3.3H538.6z"/><path class="st0" d="M572.1,43.6v-3.5h5l-3.9-22.4l3.6-8.2h-5.3v38.9h-3.8V5.7h15l-5.7,13l4.4,24.9H572.1z M609.6,28.9h-9.8v15.3
				h9.8v3.6H596V28.9h-1l-10.1,19.4h-4.3l10.1-19.4h-8.9v-3.7h27.8V28.9z M582,8.6h11.8V4.5h3.8v4.1h11.8V19h-3.8v-6.8h-19.8V19H582
				V8.6z M604.6,20.2h-17.7v-3.7h17.7V20.2z"/></g></g></g></svg>