<?xml version="1.0" encoding="utf-8"?><!--Generator: Adobe Illustrator 25.0.0, SVG Export Plug-In . SVG Version: 6.00 Build 0)--><svg version="1.1" id="Layer_1" xmlns="http://www.w3.org/2000/svg" xmlns:xlink="http://www.w3.org/1999/xlink" x="0px" y="0px" viewBox="0 0 800 800" style="enable-background:new 0 0 800 800" xml:space="preserve"><style type="text/css">.st0{fill:none;}
	.st1{fill:#FFFFFF;}</style><rect class="st0" width="800" height="800"/><path class="st1" d="M400,337c34.4,0,62.3,27.9,62.3,62.3c0,34.4-27.9,62.3-62.3,62.3c-34.2,0-62-27.5-62.3-61.7
	C337.5,365.4,365.4,337.2,400,337C400,337,400,337,400,337 M245.7,666.7c21,12.7,66.7-6.7,120-56.7c-17.8-20.3-34.6-41.4-50.3-63.3
	c-26.9-3-53.6-7.5-80-13.3C218.3,604.7,224.7,653.7,245.7,666.7 M269.3,475.3l-9.7-17c-3.8,9.4-7,18.9-9.7,28.7c9,2,19,3.7,29.3,5.3
	L269.3,475.3 M487.3,450l27-50l-27-50c-10-17.7-20.7-33.3-30.3-49c-18-1-37-1-57-1c-20,0-39,0-57,0c-9.7,15.7-20.3,31.3-30.3,49
	l-27,51l27,50c10,17.7,20.7,33.3,30.3,49c18,0,37,0,57,0c20,0,39,0,57,0C466.7,483.3,477.3,467.7,487.3,450 M400,226
	c-6.3,7.3-13,15-19.7,24h39.3C413,241,406.3,233.3,400,226 M400,574c6.3-7.3,13-15,19.7-24h-39.3C387,559,393.7,566.7,400,574
	 M554,133.3c-20.7-12.7-66.7,6.7-119.7,56.7c17.8,20.3,34.6,41.4,50.3,63.3c26.9,2.6,53.6,6.6,80,12C581.7,194,575.3,145,554,132
	 M530.7,323.3l9.7,17c3.8-9.4,7-18.9,9.7-28.7c-9-2-19-3.7-29.3-5.3L530.7,323.3 M579,90c49,28,54.3,101.7,33.3,187.7
	C697,302.7,758,344.3,758,400.3S697,498,612.3,523c20.7,86,15.3,159.7-33.3,187.7s-115-4-179-65c-64,61-130.3,93-179.3,65
	s-54-100-33.3-187.7c-84.7-25-145.7-66.7-145.7-122.7s61-98,145.7-123c-20.7-86-15.3-159.7,33.3-187.7s115.3,4,179.3,65
	c64-61,130.3-93,179-65 M569.3,400c11.6,24.5,21.8,49.7,30.7,75.3c70-21,109.3-51,109.3-75.3c0-24.3-40.3-54.3-109.3-75.3
	C591.1,350.3,580.9,375.5,569.3,400 M230.7,400c-11.6-24.5-21.8-49.7-30.7-75.3c-70,21-109.3,51-109.3,75.3
	c0,24.3,40.3,54.3,109.3,75.3C208.9,449.7,219.1,424.5,230.7,400 M530.7,475.3l-10,17c10.3,0,20.3-3.3,29.3-5.3
	c-2.7-9.7-5.9-19.3-9.7-28.7L530.7,475.3 M433.3,610c53,50,100,69.3,119.7,56.7c19.7-12.7,27.7-60.7,10.7-133.3
	c-26.4,5.4-53.1,9.4-80,12C468,567.7,451.2,589.3,433.3,610 M269.3,324.7l10-17c-10.3,0-20.3,3.3-29.3,5.3
	c2.7,9.7,5.9,19.3,9.7,28.7L269.3,324.7 M366.7,190c-54-50-100-69.3-121-56.7s-27.3,60.7-10.3,133.3c26.4-5.4,53.1-9.4,80-12
	C331.3,232.2,348.5,210.7,366.7,190z"/></svg>