<?xml version="1.0" encoding="utf-8"?>
<!-- Generator: Adobe Illustrator 25.0.0, SVG Export Plug-In . SVG Version: 6.00 Build 0)  -->
<svg version="1.1" id="Layer_1" xmlns="http://www.w3.org/2000/svg" xmlns:xlink="http://www.w3.org/1999/xlink" x="0px" y="0px"
	 viewBox="0 0 800 800" style="enable-background:new 0 0 800 800;" xml:space="preserve">
<style type="text/css">
	.st0{fill:#FFFFFF;}
	.st1{fill:none;}
</style>
<path class="st0" d="M633.3,166.7v466.7H166.7V166.7H633.3 M633.3,100H166.7c-36.8,0-66.7,29.8-66.7,66.7v466.7
	c0,36.8,29.8,66.7,66.7,66.7h466.7c36.8,0,66.7-29.8,66.7-66.7V166.7C700,129.8,670.2,100,633.3,100z"/>
<g>
	<path class="st0" d="M410,539.3L391,477h-95.7l-19,62.3h-59.7l92.3-263h66.7l92.7,263H410z M376.7,430.3
		C359,374,349.3,342,347,334.7c-2.3-7.3-3.7-13.3-4.7-17.7c-4,15.3-15.3,53.3-33.3,113.3H376.7z"/>
	<path class="st0" d="M496,287.3c0-17.7,10-26.7,29.7-26.7c19.7,0,29.7,9,29.7,26.7c0.5,7.3-2.2,14.5-7.3,19.7
		c-6.1,5.4-14.2,8-22.3,7.3C506,314.3,496,305.3,496,287.3z M553,539.3h-53v-200h54.7L553,539.3z"/>
</g>
<rect class="st1" width="800" height="800"/>
</svg>
