<svg xmlns="http://www.w3.org/2000/svg" xmlns:xlink="http://www.w3.org/1999/xlink" width="106.69" height="49.661" viewBox="0 0 106.69 49.661">
  <defs>
    <clipPath id="clip-path">
      <rect id="長方形_38" data-name="長方形 38" width="106.69" height="49.661" fill="none"/>
    </clipPath>
  </defs>
  <g id="グループ_36" data-name="グループ 36" clip-path="url(#clip-path)">
    <path id="パス_1" data-name="パス 1" d="M132.482,16.147a13.051,13.051,0,0,0-10.9,4.646,12.013,12.013,0,0,1,7.954-2.092c6.611.62,10.862,6.4,8.887,12.512a10.593,10.593,0,0,1-3.1,4.668,11.957,11.957,0,0,0,6.489-6.939c2.147-6.389-2.328-12.3-9.335-12.795" transform="translate(-58.165 -7.71)" fill="#070203"/>
    <path id="パス_2" data-name="パス 2" d="M24.391,66.819c-10.109,0-18.306-6.771-18.306-15.128,0-6.815,5.452-12.576,12.948-14.468-9.859.235-17.768,6.91-17.768,15.116,0,8.357,8.2,15.13,18.3,15.13a21.887,21.887,0,0,0,5.357-.66c-.177,0-.356.01-.535.01" transform="translate(-0.605 -17.808)" fill="#070203"/>
    <path id="パス_3" data-name="パス 3" d="M20.423,46.17s7.571,11.912,21.35,5.541c11.45-5.294,17.453-30.5,34.178-37.727,0,0-12.24,0-22.514,14.819C43.724,42.814,33.325,53.094,20.423,46.17" transform="translate(-9.77 -6.69)" fill="#070203"/>
    <path id="パス_4" data-name="パス 4" d="M22.8,27.668a38.253,38.253,0,0,1,15.483,7.3c1.257-1.61,2.507-3.3,3.749-5.052C33.8,23.571,26.13,20.161,18.8,20.661-.111,21.95,0,38.31,0,38.31S5.166,24.172,22.8,27.668" transform="translate(0 -9.861)" fill="#070203"/>
    <path id="パス_5" data-name="パス 5" d="M114.924,50.266l5.478,4.246C104.373,68.25,86.767,52.84,86.767,52.84l3-4.7s11.658,15.658,25.157,7.309c3.358-2.076,0-5.183,0-5.183" transform="translate(-41.509 -23.03)" fill="#070203"/>
    <path id="パス_6" data-name="パス 6" d="M172.746,11.027h-12.7l2.879-4.053h7.644L174.183,0h4.008Z" transform="translate(-76.568 0)" fill="#070203"/>
    <path id="パス_7" data-name="パス 7" d="M175.207,13.367h12.7l-2.879,4.054H177.38l-3.611,6.974h-4.008Z" transform="translate(-81.214 -6.395)" fill="#070203"/>
    <path id="パス_8" data-name="パス 8" d="M89.767,48.14l-3,4.7L88.5,54.176l2.5-4.562Z" transform="translate(-41.509 -23.03)" fill="#070203"/>
  </g>
</svg>
