<?xml version="1.0" encoding="utf-8"?>
<!-- Generator: Adobe Illustrator 25.0.0, SVG Export Plug-In . SVG Version: 6.00 Build 0)  -->
<svg version="1.1" id="Layer_1" xmlns="http://www.w3.org/2000/svg" xmlns:xlink="http://www.w3.org/1999/xlink" x="0px" y="0px"
	 viewBox="0 0 800 800" style="enable-background:new 0 0 800 800;" xml:space="preserve">
<style type="text/css">
	.st0{fill:#FFFFFF;}
</style>
<path class="st0" d="M150,80c-6.9,0-12.5,5.6-12.5,12.5V570c0,4.5,2.4,8.6,6.3,10.8L386.7,721c3.8,2.2,8.4,2.2,12.3,0.1L656,580.2
	c4-2.2,6.5-6.4,6.5-11V92.5c0-6.9-5.6-12.5-12.5-12.5H150z M62.5,92.5C62.5,44.2,101.7,5,150,5h500c48.3,0,87.5,39.2,87.5,87.5
	v476.8c0,32-17.4,61.4-45.5,76.7L435,786.9c-26.8,14.7-59.3,14.3-85.8-0.9L106.3,645.8c-27.1-15.6-43.8-44.5-43.8-75.8V92.5z
	 M250,217.5c0-20.7,16.8-37.5,37.5-37.5h230.8c20.7,0,37.5,16.8,37.5,37.5v304.8c0,14.2-8,27.2-20.7,33.5l-115.4,57.7
	c-10.6,5.3-23,5.3-33.5,0l-115.4-57.7c-12.7-6.4-20.7-19.3-20.7-33.5v-28.8c0-20.7,16.8-37.5,37.5-37.5s37.5,16.8,37.5,37.5v5.7
	l77.9,38.9l77.9-38.9v-83.6H350c-20.7,0-37.5-16.8-37.5-37.5c0-20.7,16.8-37.5,37.5-37.5h130.8V255H287.5
	C266.8,255,250,238.2,250,217.5z"/>
</svg>
