<?xml version="1.0" encoding="utf-8"?>
<!-- Generator: Adobe Illustrator 25.0.0, SVG Export Plug-In . SVG Version: 6.00 Build 0)  -->
<svg version="1.1" id="Layer_1" xmlns="http://www.w3.org/2000/svg" xmlns:xlink="http://www.w3.org/1999/xlink" x="0px" y="0px"
	 viewBox="0 0 800 800" style="enable-background:new 0 0 800 800;" xml:space="preserve">
<style type="text/css">
	.st0{fill:#FFFFFF;}
	.st1{fill-rule:evenodd;clip-rule:evenodd;fill:#FFFFFF;}
</style>
<path class="st0" d="M433.3,200c0-18.4,14.9-33.3,33.3-33.3h100c18.4,0,33.3,14.9,33.3,33.3s-14.9,33.3-33.3,33.3h-60
	c-3.7,0-6.7,3-6.7,6.7v53.3c0,3.7,3,6.7,6.7,6.7h60c18.4,0,33.3,14.9,33.3,33.3v100c0,8.8-3.5,17.3-9.8,23.6l-100,100
	c-13,13-34.1,13-47.1,0s-13-34.1,0-47.1l88.3-88.3c1.3-1.2,2-2.9,2-4.7v-43.4c0-3.7-3-6.7-6.7-6.7h-60c-18.4,0-33.3-14.9-33.3-33.3
	V200z"/>
<path class="st0" d="M366.7,200c0-18.4-14.9-33.3-33.3-33.3c-18.4,0-33.3,14.9-33.3,33.3v236.8c0,5.9-7.2,8.9-11.4,4.7l-20-20
	c-1.3-1.2-2-2.9-2-4.7V400c0-18.4-14.9-33.3-33.3-33.3c-18.4,0-33.3,14.9-33.3,33.3v33.3c0,8.8,3.5,17.3,9.8,23.6l100,100
	c9.5,9.5,23.9,12.4,36.3,7.2c12.5-5.2,20.6-17.3,20.6-30.8V200z"/>
<path class="st1" d="M44.5,147.5c-8.6-60.2,38.1-114.1,99-114.1h512.9c60.9,0,107.6,53.9,99,114.1l-52.3,366.1
	c-3.4,23.7-15.1,45.4-33.1,61.1L465.8,753.3c-37.7,33-94,33-131.7,0L130,574.7c-18-15.8-29.8-37.4-33.1-61.1L44.5,147.5z M143.5,100
	c-20.3,0-35.9,18-33,38l52.3,366.1c1.1,7.9,5,15.1,11,20.4L378,703.2c12.6,11,31.3,11,43.9,0l204.2-178.6c6-5.2,9.9-12.5,11-20.4
	L689.5,138c2.9-20.1-12.7-38-33-38H143.5z"/>
</svg>
