<?xml version="1.0" encoding="UTF-8"?>
<svg id="_レイヤー_1" data-name="レイヤー 1" xmlns="http://www.w3.org/2000/svg" viewBox="0 0 280.73 58.24">
  <defs>
    <style>
      .cls-1 {
        letter-spacing: .22em;
      }

      .cls-2 {
        letter-spacing: .18em;
      }

      .cls-3 {
        letter-spacing: .24em;
      }

      .cls-4 {
        letter-spacing: .32em;
      }

      .cls-5 {
        letter-spacing: .32em;
      }

      .cls-6 {
        font-family: ZenKakuGothicNew-Bold, 'Zen Kaku Gothic New';
        font-size: 13px;
        font-weight: 700;
      }

      .cls-7 {
        stroke-width: 0px;
      }
    </style>
  </defs>
  <g>
    <path class="cls-7" d="m30.35,11c3.05-3.39,6.46-8.44,9.02-11,3.84,3.08,8.03,8.03,7.91,17.4-.12,9.37-5.41,15.77-9.66,20.07-4.25,4.31-4.95,4.71-8.26,6.92,4.19-5.35,9.13-15.36,10.24-19.78,1.11-4.42.35-9.54-1.57-11.29-3.49,2.79-9.13,11.11-11.29,15.77s-4.07,12.45-4.13,16.7c-.06,4.25-.12,9.31,1.22,12.45-2.21-2.62-3.34-5.17-4.13-9.31-1.57-8.2.41-18.27,2.34-23.33,2.42-6.33,6.21-12.28,8.31-14.6Z"/>
    <path class="cls-7" d="m15.66,44.62c-4.67-2.97-9.86-8.38-13.18-14.49C-1.18,23.38.22,16.28.48,14.78c.31-1.77,1.16-3.95,1.75-5.41,4.95-.49,8.73,2.62,11.52,6.46,2.79,3.84,4.8,9.08,5.39,12.83-2.95-4.59-6.97-9.74-11.9-11.52-1.48,5.89-.61,9.94.79,13.75,1.57,4.28,3.28,6.5,4.49,8.16,1.69,2.32,4.56,5.2,8.55,8.49-1.59-.65-3.88-1.94-5.41-2.91Z"/>
  </g>
  <g>
    <path class="cls-7" d="m65.95,29.64l-3.39-5.2-.67.79v4.42h-1.77v-11.38h1.77v4.69c.12-.16.24-.32.35-.47l3.38-4.22h2.22l-4.06,4.9,4.27,6.48h-2.11Z"/>
    <path class="cls-7" d="m72.02,29.64v-4.82l-3.48-6.56h2.03l1.58,3.18c.32.62.58,1.16.83,1.71.25-.55.53-1.11.84-1.72l1.64-3.16h2.01l-3.68,6.53v4.85h-1.77Z"/>
    <path class="cls-7" d="m83.55,29.81c-2.91,0-4.87-2.32-4.87-5.77s2.01-5.94,5-5.94,4.84,2.31,4.84,5.76c0,3.62-1.95,5.96-4.97,5.96Zm.07-10.14c-2.15,0-3.11,2.18-3.11,4.34s1.06,4.23,3.08,4.23c2.14,0,3.09-2.17,3.09-4.33s-.96-4.24-3.07-4.24Z"/>
    <polygon class="cls-7" points="93.06 29.64 93.06 19.86 89.89 19.86 89.89 18.27 98.02 18.27 98.02 19.86 94.84 19.86 94.84 29.64 93.06 29.64"/>
    <path class="cls-7" d="m104.25,29.81c-2.91,0-4.87-2.32-4.87-5.77s2.01-5.94,5-5.94,4.84,2.31,4.84,5.76c0,3.62-1.95,5.96-4.97,5.96Zm.07-10.14c-2.15,0-3.11,2.18-3.11,4.34s1.06,4.23,3.08,4.23c2.14,0,3.09-2.17,3.09-4.33s-.96-4.24-3.07-4.24Z"/>
    <polygon class="cls-7" points="115.8 29.64 115.8 28.54 121.38 19.86 116.28 19.86 116.28 18.27 123.71 18.27 123.71 19.4 118.14 28.05 123.77 28.05 123.77 29.64 115.8 29.64"/>
    <path class="cls-7" d="m133.11,29.64l-1.16-3.49h-3.31l-1.13,3.49h-1.84l3.76-11.38h1.79l3.76,11.38h-1.88Zm-1.6-5.03l-.93-2.8c-.11-.35-.2-.68-.29-.99-.09.31-.18.63-.27.94l-.95,2.86h2.44Z"/>
    <rect class="cls-7" x="137.53" y="18.26" width="1.77" height="11.38"/>
    <path class="cls-7" d="m151.85,29.64l-.29-5.33c-.05-.86-.1-1.84-.14-2.73-.23.72-.5,1.51-.81,2.41l-2,5.6h-1.29l-1.87-5.49c-.29-.88-.54-1.66-.75-2.37-.04.89-.09,1.87-.15,2.89l-.31,5.02h-1.72l.79-11.38h1.94l1.97,5.68c.34,1.01.61,1.86.83,2.63.24-.81.52-1.66.86-2.63l2.04-5.68h1.96l.72,11.38h-1.76Z"/>
    <path class="cls-7" d="m160.7,29.81c-1.46,0-3.91-.61-3.91-4.73v-6.81h1.77v6.82c0,2.02.78,3.14,2.19,3.14,1.89,0,2.29-1.71,2.29-3.14v-6.82h1.77v6.74c0,3.05-1.5,4.8-4.12,4.8Z"/>
    <path class="cls-7" d="m175.34,29.79c-1.01,0-2.14-.3-2.75-.73l-.18-.13.52-1.56.33.21c.58.38,1.4.62,2.15.62,1.25,0,1.99-.61,1.99-1.64,0-.77-.31-1.4-1.79-2-1.93-.72-2.92-1.84-2.92-3.32,0-1.85,1.48-3.14,3.6-3.14.92,0,1.81.21,2.37.55l.21.13-.56,1.56-.32-.2c-.12-.07-.75-.45-1.73-.45-1.3,0-1.77.75-1.77,1.4,0,.85.46,1.32,1.91,1.93,1.97.83,2.81,1.86,2.81,3.44,0,2.02-1.52,3.33-3.86,3.33Z"/>
    <path class="cls-7" d="m185.8,29.81c-1.46,0-3.91-.61-3.91-4.73v-6.81h1.77v6.82c0,2.02.78,3.14,2.19,3.14,1.89,0,2.29-1.71,2.29-3.14v-6.82h1.77v6.74c0,3.05-1.5,4.8-4.12,4.8Z"/>
    <path class="cls-7" d="m193.14,29.64v-11.19l.25-.04c.79-.14,1.63-.22,2.5-.22,3.67,0,4.06,2.37,4.06,3.38,0,2.76-2.19,3.74-4.23,3.74-.3,0-.56,0-.8-.04v4.37h-1.77Zm1.77-5.94c.22.04.49.05.83.05,1.57,0,2.43-.74,2.43-2.09,0-1.67-1.42-1.92-2.27-1.92-.45,0-.77.03-.99.06v3.89Z"/>
    <path class="cls-7" d="m202.61,29.64v-11.19l.25-.04c.79-.14,1.64-.22,2.5-.22,3.67,0,4.06,2.37,4.06,3.38,0,2.76-2.19,3.74-4.23,3.74-.3,0-.56,0-.8-.04v4.37h-1.77Zm1.77-5.94c.22.04.49.05.83.05,1.57,0,2.43-.74,2.43-2.09,0-1.67-1.42-1.92-2.27-1.92-.45,0-.77.03-.99.06v3.89Z"/>
    <path class="cls-7" d="m216.33,29.81c-2.91,0-4.87-2.32-4.87-5.77s2.01-5.94,5-5.94,4.84,2.31,4.84,5.76c0,3.62-1.95,5.96-4.97,5.96Zm.07-10.14c-2.15,0-3.11,2.18-3.11,4.34s1.06,4.23,3.08,4.23c2.14,0,3.09-2.17,3.09-4.33s-.96-4.24-3.07-4.24Z"/>
    <path class="cls-7" d="m229.37,29.64l-.08-.16c-.11-.2-.31-.71-.72-2.68-.29-1.4-.8-1.93-1.88-1.93h-1.02v4.77h-1.77v-11.17l.24-.05c.68-.14,1.64-.23,2.51-.23,1.46,0,2.46.3,3.16.96.57.53.9,1.34.9,2.23,0,1.23-.59,2.22-1.65,2.79.59.41,1,1.15,1.22,2.19.27,1.22.54,2.41.77,2.84l.23.44h-1.89Zm-2.62-6.27c1.33,0,2.16-.71,2.16-1.85s-.75-1.79-2.22-1.79c-.48,0-.82.03-1.03.06v3.58h1.09Z"/>
    <polygon class="cls-7" points="235.4 29.64 235.4 19.86 232.24 19.86 232.24 18.27 240.36 18.27 240.36 19.86 237.18 19.86 237.18 29.64 235.4 29.64"/>
  </g>
  <text class="cls-6" transform="translate(59.21 51.63) scale(1 1.02)"><tspan class="cls-5" x="0" y="0">税理士法人</tspan><tspan class="cls-2" x="85.8" y="0"> </tspan><tspan class="cls-3" x="91.78" y="0">京</tspan><tspan class="cls-5" x="107.9" y="0">都財</tspan><tspan class="cls-1" x="142.22" y="0">務</tspan><tspan class="cls-3" x="158.08" y="0">サ</tspan><tspan class="cls-4" x="174.2" y="0">ポ</tspan><tspan x="191.36" y="0">ー</tspan><tspan class="cls-5" x="204.36" y="0">ト</tspan></text>
</svg>