<?xml version="1.0" encoding="utf-8"?>
<!-- Generator: Adobe Illustrator 25.0.0, SVG Export Plug-In . SVG Version: 6.00 Build 0)  -->
<svg version="1.1" id="Layer_1" xmlns="http://www.w3.org/2000/svg" xmlns:xlink="http://www.w3.org/1999/xlink" x="0px" y="0px"
	 viewBox="0 0 800 800" style="enable-background:new 0 0 800 800;" xml:space="preserve">
<style type="text/css">
	.st0{fill:#FFFFFF;}
</style>
<path class="st0" d="M359.9,153c-79.7,0-144.3,64.5-144.3,144v320.3c0,59.4-48.3,107.6-107.8,107.6C48.3,725,0,676.8,0,617.4
	c0-21.5,17.5-39,39.1-39c21.6,0,39.1,17.5,39.1,39c0,16.4,13.3,29.6,29.7,29.6s29.7-13.3,29.7-29.6V297c0-122.6,99.6-222,222.4-222
	c101.4,0,186.9,67.7,213.7,160.3C699.3,239.2,800,342.2,800,468.6c0,1.9-0.1,3.9-0.4,5.7c0.3,1.9,0.4,3.8,0.4,5.7V686
	c0,21.5-17.5,39-39.1,39h-401c-21.6,0-39.1-17.5-39.1-39V480.1c0-21.5,17.5-39,39.1-39c79.7,0,144.3-64.5,144.3-144
	S439.6,153,359.9,153z M722.3,474.4c-0.3-1.9-0.4-3.8-0.4-5.7c0-80.6-61.5-146.9-140.2-154.7C574,415.6,497.7,498.2,399,515.7V647
	h122.4v-86.8c0-21.5,17.5-39,39.1-39c21.6,0,39.1,17.5,39.1,39V647h122.4V480.1C721.9,478.1,722,476.2,722.3,474.4z"/>
</svg>
