<?xml version="1.0" encoding="utf-8"?>
<!-- Generator: Adobe Illustrator 25.0.0, SVG Export Plug-In . SVG Version: 6.00 Build 0)  -->
<svg version="1.1" id="Layer_1" xmlns="http://www.w3.org/2000/svg" xmlns:xlink="http://www.w3.org/1999/xlink" x="0px" y="0px"
	 viewBox="0 0 800 800" style="enable-background:new 0 0 800 800;" xml:space="preserve">
<style type="text/css">
	.st0{fill:#FFFFFF;}
</style>
<g id="c2be471c56fc5b4dd571614bb3052f50">
	<path class="st0" d="M664.4,157c0,0-0.7-3.6-2.7-4.9c-2-1.3-4.3-1.6-4.3-1.6l-64.2-4.8l-47.2-47c-1.8-1.4-3.9-2.2-6-2.6
		c-5-1-11.8,0.2-13,0.5l-24.5,7.6c-10.6-31.4-25.2-53.8-43.4-66.7c-13.5-9.5-28.4-13.6-44.3-12.4c-3.4-4.5-7-8.4-11.1-11.6
		C386-0.8,363.1-3.1,335.8,6.8c-82,29.8-116.8,136-129.3,189L135.1,218c0,0-16.8,4.8-20.8,9.5c-4.3,5.2-5.2,19.2-5.2,19.2
		L48.5,714.1L505,799.2l246.5-53.3L664.4,157z M411.4,132.4l-78.9,24.4c10.5-41,30.6-82.8,69-99.1
		C409.5,78.6,411.7,107.2,411.4,132.4z M345.2,32.7c16.7-6.1,29.5-5.8,39.2,0.7c-51.5,23.5-74,82.7-83.7,133.4l-63.2,19.6
		C251.5,135.3,283,55.2,345.2,32.7z M389.4,377.1c-3.6-1.8-7.9-3.6-12.7-5.4c-4.8-1.8-10.1-3.5-15.9-4.9c-5.7-1.4-11.9-2.5-18.4-3.2
		c-6.4-0.7-13.2-0.9-20.2-0.5c-6.4,0.4-12.2,1.5-17.4,3.4c-5.1,1.8-9.5,4.3-13.1,7.4c-3.6,3.1-6.5,6.8-8.5,11c-2,4.2-3.2,9-3.4,14.3
		c-0.2,3.9,0.4,7.7,1.8,11.3c1.4,3.7,3.5,7.3,6.5,10.8c2.9,3.6,6.7,7.1,11.2,10.8c4.6,3.7,9.9,7.4,16.1,11.3
		c8.7,5.6,17.6,11.9,26,19c8.6,7.3,16.7,15.6,23.7,25c7.1,9.5,12.9,20.1,16.9,32.1c4,12,6,25.3,5.4,39.9c-1,23.9-6.3,44.5-15,61.6
		c-8.6,16.9-20.4,30.1-34.6,39.8c-13.9,9.4-30,15.2-47.6,17.6c-17,2.3-35.3,1.3-54.1-2.9c-0.1,0-0.3-0.1-0.4-0.1
		c-0.1,0-0.3-0.1-0.4-0.1c-0.1,0-0.3-0.1-0.4-0.1c-0.1,0-0.3-0.1-0.4-0.1c-8.8-2.1-17.4-4.9-25.4-8.2c-7.9-3.2-15.3-6.8-22-10.7
		c-6.6-3.9-12.7-8-17.9-12.3c-5.2-4.3-9.5-8.7-13-13.1l20.8-68.9c3.5,3,7.8,6.3,12.7,9.7c4.9,3.5,10.5,7,16.4,10.4
		c6,3.4,12.4,6.5,19,9c6.7,2.6,13.6,4.5,20.4,5.5c6,0.9,11.4,0.7,16.1-0.4c4.7-1.1,8.8-3,12.1-5.8c3.3-2.7,5.9-6.1,7.7-10
		c1.8-4,2.8-8.4,3-13.1c0.2-4.8-0.2-9.2-1.4-13.5c-1.2-4.3-3.1-8.5-5.9-12.7c-2.8-4.2-6.4-8.4-11-12.7c-4.5-4.3-10-8.8-16.4-13.5
		c-7.9-5.9-15.4-12.3-22.1-19.3c-6.6-6.9-12.4-14.4-17.2-22.5c-4.7-8-8.5-16.7-10.9-26.1c-2.4-9.4-3.5-19.5-3.1-30.6
		c0.8-18.5,4.5-35.6,10.7-50.9c6.3-15.5,15.1-29.4,26.2-41.4c11.3-12.2,25.1-22.5,41-30.5c16.3-8.2,35-13.9,55.7-16.6
		c9.6-1.3,18.8-1.9,27.5-1.9c8.9,0,17.2,0.5,24.8,1.5c7.8,1,14.8,2.4,21.1,4.2c6.3,1.8,11.8,3.9,16.3,6.2L389.4,377.1z M438.8,124
		c0-3.1-0.1-6.2-0.2-9.4c-0.9-24.6-4.3-45.2-9.9-62c6.2,0.6,11.8,2.7,16.9,6.3c14.3,10.1,24.6,30.5,31.8,53.2L438.8,124z"/>
</g>
</svg>
