<?xml version="1.0" encoding="utf-8"?>
<!-- Generator: Adobe Illustrator 25.0.0, SVG Export Plug-In . SVG Version: 6.00 Build 0)  -->
<svg version="1.1" id="Layer_1" xmlns="http://www.w3.org/2000/svg" xmlns:xlink="http://www.w3.org/1999/xlink" x="0px" y="0px"
	 viewBox="0 0 800 800" style="enable-background:new 0 0 800 800;" xml:space="preserve">
<style type="text/css">
	.st0{fill:#FFFFFF;}
</style>
<path class="st0" d="M587.6,50h-66.8c-12.8,0-24.6,6.5-31.5,17.2L400,206.1L310.7,67.2C303.8,56.5,291.9,50,279.2,50H37.5
	C24.1,50,11.6,57.2,5,68.9c-6.7,11.7-6.6,26,0.2,37.6l362.5,617.6c6.7,11.5,19,18.5,32.3,18.5c13.3,0,25.6-7,32.3-18.5l362.5-617.6
	c6.8-11.6,6.9-25.9,0.2-37.6C788.4,57.2,775.9,50,762.5,50H588.3C588.1,50,587.9,50,587.6,50z M190.5,125L400,484.1L609.5,125H697
	L400,631L103,125H190.5z"/>
</svg>
