<?xml version="1.0" encoding="utf-8"?>
<!-- Generator: Adobe Illustrator 25.0.0, SVG Export Plug-In . SVG Version: 6.00 Build 0)  -->
<svg version="1.1" id="Layer_1" xmlns="http://www.w3.org/2000/svg" xmlns:xlink="http://www.w3.org/1999/xlink" x="0px" y="0px"
	 viewBox="0 0 800 800" style="enable-background:new 0 0 800 800;" xml:space="preserve">
<style type="text/css">
	.st0{fill:#FFFFFF;}
</style>
<path class="st0" d="M538.1,49.4h85.5L434.5,556.1c-48.4,135.4-99.5,189.4-185.1,194v-66.2c41.3-6.9,74.3-36,86.8-74.5l0.2-0.8
	c5.3-13.1,8.3-28.3,8.3-44.2c0-15.9-3-31.1-8.6-45l0.3,0.8L226,236.7h77.7l78.5,245.5L538.1,49.4z M520.7,25.1l-41.1,114.1H194.5
	C132.8,139.4,82.8,189.3,82.6,251v297.7c0.2,61.7,50.2,111.7,111.9,111.9h46.7c-1.9,0.3-3.7,0.6-5.6,0.9L225,663v111.9h12.2
	c0.9,0,1.9,0,2.9,0c77.9,0,144.9-46.4,174.9-113l0.5-1.2h302V251.1C717.3,193,673,145.3,616.3,139.8l-0.4,0l42.7-114.6L520.7,25.1z"
	/>
</svg>
